AdobeSans-One.ufo
<glyph name="exclam" format="1">
  <advance width="183.885702339"/>
  <unicode hex="0021"/>
  <outline>
    <contour>
      <point x="118.047885432" y="709.0" type="line"/>
      <point x="65.2685191696" y="709.0" type="line"/>
      <point x="72.9924888873" y="173.115897345" type="line"/>
      <point x="110.424534882" y="173.115897345" type="line"/>
    </contour>
    <contour>
      <point x="68.0314511285" y="93.6607815" type="line"/>
      <point x="68.0314511285" y="0.0" type="line"/>
      <point x="115.88888173" y="0.0" type="line"/>
      <point x="115.88888173" y="93.6607815" type="line"/>
    </contour>
  </outline>
</glyph>
<glyph name="numbersign" format="1">
  <advance width="442.838920075"/>
  <unicode hex="0023"/>
  <outline>
    <contour>
      <point x="241.966213399" y="246.67172791" type="line"/>
      <point x="182.865461412" y="0.0" type="line"/>
      <point x="217.741204834" y="0.0" type="line"/>
      <point x="276.84195682" y="246.67172791" type="line"/>
      <point x="373.694511189" y="246.67172791" type="line"/>
      <point x="381.156779094" y="277.99823445" type="line"/>
      <point x="283.807533815" y="277.99823445" type="line"/>
      <point x="320.780020977" y="428.168373365" type="line"/>
      <point x="417.632575345" y="428.168373365" type="line"/>
      <point x="424.928235436" y="459.494879905" type="line"/>
      <point x="328.075681067" y="459.494879905" type="line"/>
      <point x="384.189316302" y="694.165901595" type="line"/>
      <point x="349.643655976" y="694.165901595" type="line"/>
      <point x="293.53002074" y="459.494879905" type="line"/>
      <point x="201.045932671" y="459.494879905" type="line"/>
      <point x="257.159567906" y="694.165901595" type="line"/>
      <point x="222.61390758" y="694.165901595" type="line"/>
      <point x="166.500272345" y="459.494879905" type="line"/>
      <point x="68.814325791" y="459.494879905" type="line"/>
      <point x="61.3454397064" y="428.168373365" type="line"/>
      <point x="158.874529159" y="428.168373365" type="line"/>
      <point x="122.232125093" y="277.99823445" type="line"/>
      <point x="25.0428694497" y="277.99823445" type="line"/>
      <point x="17.4073755501" y="246.67172791" type="line"/>
      <point x="114.936465003" y="246.67172791" type="line"/>
      <point x="55.8357130163" y="0.0" type="line"/>
      <point x="90.3813733427" y="0.0" type="line"/>
      <point x="149.812208425" y="246.67172791" type="line"/>
    </contour>
    <contour>
      <point x="249.261873489" y="277.99823445" type="line"/>
      <point x="156.777785419" y="277.99823445" type="line"/>
      <point x="193.750272581" y="428.168373365" type="line"/>
      <point x="286.23436065" y="428.168373365" type="line"/>
    </contour>
  </outline>
</glyph>
<glyph name="dollar" format="1">
  <advance width="463.570470999"/>
  <unicode hex="0024"/>
  <outline>
    <contour>
      <point x="244.842354985" y="640.919812313" type="line"/>
      <point x="306.188378768" y="635.792933681"/>
      <point x="329.605104371" y="594.535937706"/>
      <point x="339.167343851" y="553.875072231" type="curve"/>
      <point x="384.307924013" y="557.002537332" type="line"/>
      <point x="370.820296908" y="619.775007949"/>
      <point x="335.625381175" y="668.609453427"/>
      <point x="244.842354985" y="674.024739949" type="curve"/>
      <point x="244.842354985" y="748.833039075" type="line"/>
      <point x="214.636335023" y="748.833039075" type="line"/>
      <point x="214.636335023" y="674.225978283" type="line"/>
      <point x="98.8706486946" y="668.765884022"/>
      <point x="64.8806052288" y="603.629187419"/>
      <point x="64.8806052288" y="532.686377607" type="curve" smooth="yes"/>
      <point x="64.8806052288" y="427.613856054"/>
      <point x="148.164542732" y="392.833502407"/>
      <point x="214.636335023" y="346.751192015" type="curve"/>
      <point x="214.636335023" y="45.2366916782" type="line"/>
      <point x="156.875137132" y="49.8948917398"/>
      <point x="121.324701865" y="82.86038097"/>
      <point x="101.866867419" y="140.891764944" type="curve"/>
      <point x="56.4463902788" y="135.447239852" type="line"/>
      <point x="77.9158017107" y="56.5573020788"/>
      <point x="132.942155074" y="16.1924407732"/>
      <point x="214.636335023" y="11.9651562273" type="curve"/>
      <point x="214.636335023" y="-69.833392185" type="line"/>
      <point x="244.842354985" y="-69.833392185" type="line"/>
      <point x="244.842354985" y="12.3678461496" type="line"/>
      <point x="348.110524337" y="20.8972748468"/>
      <point x="405.747297152" y="97.7725894683"/>
      <point x="405.747297152" y="183.120081675" type="curve" smooth="yes"/>
      <point x="405.747297152" y="291.096315782"/>
      <point x="312.062262638" y="329.930427759"/>
      <point x="244.842354985" y="378.54899828" type="curve"/>
    </contour>
    <contour>
      <point x="214.636335023" y="402.044795964" type="line"/>
      <point x="169.22558784" y="436.707734146"/>
      <point x="112.124577048" y="463.572304388"/>
      <point x="112.124577048" y="535.100538338" type="curve" smooth="yes"/>
      <point x="112.124577048" y="585.243498316"/>
      <point x="132.086653629" y="634.365363953"/>
      <point x="214.636335023" y="640.919812313" type="curve"/>
    </contour>
    <contour>
      <point x="244.842354985" y="323.491263186" type="line"/>
      <point x="295.971612279" y="286.050957499"/>
      <point x="357.97214376" y="258.200510308"/>
      <point x="357.97214376" y="179.724515573" type="curve" smooth="yes"/>
      <point x="357.97214376" y="113.438468435"/>
      <point x="316.059774303" y="52.3390436143"/>
      <point x="244.842354985" y="45.7400007678" type="curve"/>
    </contour>
  </outline>
</glyph>
<glyph name="percent" format="1">
  <advance width="622.727198269"/>
  <unicode hex="0025"/>
  <outline>
    <contour>
      <point x="275.669314902" y="536.834451515" type="line"/>
      <point x="275.669314902" y="648.32322462"/>
      <point x="231.636109898" y="717.500882775"/>
      <point x="155.217102378" y="717.500882775" type="curve" smooth="yes"/>
      <point x="79.1628084729" y="717.500882775"/>
      <point x="35.3028294626" y="648.32322462"/>
      <point x="35.3028294626" y="536.834451515" type="curve" smooth="yes"/>
      <point x="35.3028294626" y="425.238161349"/>
      <point x="79.3392334626" y="356.33462807"/>
      <point x="155.217102378" y="356.33462807" type="curve" smooth="yes"/>
      <point x="231.497801072" y="356.33462807"/>
      <point x="275.669314902" y="424.772968424"/>
      <point x="275.669314902" y="535.834451515" type="curve"/>
    </contour>
    <contour>
      <point x="506.318149282" y="715.202584314" type="line"/>
      <point x="464.078610521" y="715.202584314" type="line"/>
      <point x="114.402570665" y="-9.22640478953" type="line"/>
      <point x="157.541490258" y="-9.22640478953" type="line"/>
    </contour>
    <contour>
      <point x="155.217102378" y="386.950822019" type="line"/>
      <point x="103.332364707" y="386.950822019"/>
      <point x="75.9817606728" y="448.060670992"/>
      <point x="75.9817606728" y="536.935070682" type="curve" smooth="yes"/>
      <point x="75.9817606728" y="625.038794443"/>
      <point x="103.398353355" y="686.884688826"/>
      <point x="155.217102378" y="686.884688826" type="curve" smooth="yes"/>
      <point x="207.903874105" y="686.884688826"/>
      <point x="234.817157698" y="625.038794443"/>
      <point x="234.817157698" y="536.935070682" type="curve" smooth="yes"/>
      <point x="234.817157698" y="448.324625583"/>
      <point x="208.001081024" y="386.950822019"/>
      <point x="156.217102378" y="386.950822019" type="curve"/>
    </contour>
    <contour>
      <point x="587.424368806" y="168.29858511" type="line"/>
      <point x="587.424368806" y="280.290667305"/>
      <point x="543.564389796" y="348.96501637"/>
      <point x="467.576084539" y="348.96501637" type="curve" smooth="yes"/>
      <point x="391.091088371" y="348.96501637"/>
      <point x="347.158502534" y="280.290667305"/>
      <point x="347.158502534" y="168.29858511" type="curve" smooth="yes"/>
      <point x="347.158502534" y="56.7022949447"/>
      <point x="390.764204271" y="-12.2012383346"/>
      <point x="467.576084539" y="-12.2012383346" type="curve" smooth="yes"/>
      <point x="542.922771881" y="-12.2012383346"/>
      <point x="587.424368806" y="56.5671851146"/>
      <point x="587.424368806" y="167.29858511" type="curve"/>
    </contour>
    <contour>
      <point x="467.576084539" y="18.4149556141" type="line"/>
      <point x="414.757335516" y="18.4149556141"/>
      <point x="387.910040571" y="79.854887683"/>
      <point x="387.910040571" y="168.399204278" type="curve" smooth="yes"/>
      <point x="387.910040571" y="257.006237128"/>
      <point x="414.823324164" y="318.348822422"/>
      <point x="467.576084539" y="318.348822422" type="curve" smooth="yes"/>
      <point x="519.328844914" y="318.348822422"/>
      <point x="546.745437596" y="257.006237128"/>
      <point x="546.745437596" y="168.399204278" type="curve" smooth="yes"/>
      <point x="546.745437596" y="80.1188422737"/>
      <point x="519.856754095" y="18.4149556141"/>
      <point x="468.576084539" y="18.4149556141" type="curve"/>
    </contour>
  </outline>
</glyph>
<glyph name="ampersand" format="1">
  <advance width="509.089076876"/>
  <unicode hex="0026"/>
  <outline>
    <contour>
      <point x="483.984551398" y="-0.503309089684" type="line"/>
      <point x="458.881712635" y="23.1390757675"/>
      <point x="430.164562076" y="60.3232188816"/>
      <point x="395.14810008" y="106.996621431" type="curve"/>
      <point x="429.11722878" y="176.849174608"/>
      <point x="453.544512654" y="253.189947998"/>
      <point x="457.332283804" y="350.82955343" type="curve"/>
      <point x="415.614242363" y="350.82955343" type="line"/>
      <point x="411.430539328" y="267.309809885"/>
      <point x="392.123296913" y="193.304732226"/>
      <point x="368.672080647" y="141.450959755" type="curve"/>
      <point x="320.201757078" y="200.945983459"/>
      <point x="266.281689604" y="300.884198853"/>
      <point x="226.304550793" y="376.105923651" type="curve"/>
      <point x="292.841438403" y="434.518623894"/>
      <point x="337.835406293" y="486.861803491"/>
      <point x="337.835406293" y="559.619476422" type="curve" smooth="yes"/>
      <point x="337.835406293" y="637.706766224"/>
      <point x="287.532554927" y="673.49669091"/>
      <point x="225.201175951" y="673.49669091" type="curve" smooth="yes"/>
      <point x="155.509001549" y="673.49669091"/>
      <point x="113.654015025" y="629.421670443"/>
      <point x="113.654015025" y="551.388699296" type="curve" smooth="yes"/>
      <point x="113.654015025" y="489.251417019"/>
      <point x="141.107424246" y="428.812823994"/>
      <point x="169.32876365" y="375.284801998" type="curve"/>
      <point x="100.424309604" y="316.44328529"/>
      <point x="50.9894490597" y="252.926246874"/>
      <point x="50.9894490597" y="162.892409543" type="curve" smooth="yes"/>
      <point x="50.9894490597" y="45.6898252294"/>
      <point x="107.404576013" y="-14.0"/>
      <point x="205.14432241" y="-14.0" type="curve" smooth="yes"/>
      <point x="285.484876006" y="-14.0"/>
      <point x="335.590860775" y="27.4246098314"/>
      <point x="360.117643765" y="68.3504961627" type="curve"/>
      <point x="362.975775898" y="68.3504961627" type="line"/>
      <point x="386.97872756" y="39.7247878536"/>
      <point x="405.609481244" y="20.167667145"/>
      <point x="424.190615173" y="-0.503309089684" type="curve"/>
    </contour>
    <contour>
      <point x="159.926565547" y="551.913122832" type="line"/>
      <point x="159.926565547" y="614.719221571"/>
      <point x="186.547502056" y="642.173103652"/>
      <point x="227.653485628" y="642.173103652" type="curve" smooth="yes"/>
      <point x="265.974624267" y="642.173103652"/>
      <point x="295.131020782" y="607.939234606"/>
      <point x="295.131020782" y="558.207315499" type="curve" smooth="yes"/>
      <point x="295.131020782" y="501.473150549"/>
      <point x="254.079262661" y="448.214142091"/>
      <point x="205.862036089" y="403.990857162" type="curve"/>
      <point x="179.708797955" y="450.842477294"/>
      <point x="159.926565547" y="494.77853391"/>
      <point x="159.926565547" y="550.913122832" type="curve"/>
    </contour>
    <contour>
      <point x="99.3961899392" y="160.789924686" type="line"/>
      <point x="99.3961899392" y="233.870808167"/>
      <point x="129.770546792" y="291.377015532"/>
      <point x="189.412469763" y="342.364784717" type="curve"/>
      <point x="232.056459405" y="260.296578168"/>
      <point x="291.241841818" y="166.469531582"/>
      <point x="339.102625392" y="100.89427643" type="curve"/>
      <point x="305.498431394" y="47.7140135843"/>
      <point x="260.418420638" y="18.2193425895"/>
      <point x="211.999982773" y="18.2193425895" type="curve" smooth="yes"/>
      <point x="172.535222991" y="18.2193425895"/>
      <point x="99.3961899392" y="59.8705913722"/>
      <point x="99.3961899392" y="159.789924686" type="curve"/>
    </contour>
  </outline>
</glyph>
<glyph name="parenleft" format="1">
  <advance width="278.343559184"/>
  <unicode hex="0028"/>
  <outline>
    <contour>
      <point x="257.001833144" y="-162.720867371" type="line"/>
      <point x="221.887437502" y="-112.254848476"/>
      <point x="193.314393717" y="-60.4102931373"/>
      <point x="172.346891208" y="-2.09760548416" type="curve" smooth="yes"/>
      <point x="136.841769418" y="108.660146084"/>
      <point x="133.064941234" y="213.138074567"/>
      <point x="133.064941234" y="291.635426242" type="curve" smooth="yes"/>
      <point x="133.064941234" y="397.096994067"/>
      <point x="143.145572942" y="497.259475579"/>
      <point x="173.196652286" y="583.874759736" type="curve" smooth="yes"/>
      <point x="195.063535628" y="648.037561577"/>
      <point x="224.40398295" y="699.444796474"/>
      <point x="258.008451324" y="745.381033562" type="curve"/>
      <point x="237.353289395" y="767.16347528" type="line"/>
      <point x="194.904130367" y="719.032118135"/>
      <point x="162.234692061" y="671.086623299"/>
      <point x="134.288669783" y="603.743077421" type="curve" smooth="yes"/>
      <point x="101.261736084" y="519.369286531"/>
      <point x="83.3852082056" y="417.620124512"/>
      <point x="82.3785900263" y="291.767403537" type="curve" smooth="yes"/>
      <point x="81.3719718469" y="168.768982877"/>
      <point x="98.0607040668" y="67.4061418876"/>
      <point x="132.525098065" y="-20.2500784727" type="curve" smooth="yes"/>
      <point x="160.213224504" y="-86.5779358323"/>
      <point x="195.026077235" y="-137.073226977"/>
      <point x="236.346671216" y="-184.50330909" type="curve"/>
    </contour>
  </outline>
</glyph>
<glyph name="parenright" format="1">
  <advance width="278.343559184"/>
  <unicode hex="0029"/>
  <outline>
    <contour>
      <point x="41.9968879678" y="-184.50330909" type="line"/>
      <point x="83.2168627815" y="-137.073226977"/>
      <point x="118.029715512" y="-86.5779358323"/>
      <point x="145.818461119" y="-20.2500784727" type="curve" smooth="yes"/>
      <point x="180.182235949" y="67.4061418876"/>
      <point x="197.144813331" y="168.768982877"/>
      <point x="195.634886062" y="291.767403537" type="curve" smooth="yes"/>
      <point x="194.628267883" y="417.620124512"/>
      <point x="178.189060446" y="519.369286531"/>
      <point x="143.724806305" y="603.743077421" type="curve" smooth="yes"/>
      <point x="116.008247955" y="671.086623299"/>
      <point x="83.4394288164" y="719.032118135"/>
      <point x="40.9902697884" y="767.16347528" type="curve"/>
      <point x="20.2344886926" y="745.381033562" type="line"/>
      <point x="54.0401954008" y="699.444796474"/>
      <point x="83.2800235557" y="648.037561577"/>
      <point x="105.04628773" y="583.874759736" type="curve" smooth="yes"/>
      <point x="135.197986241" y="497.259475579"/>
      <point x="145.278617949" y="397.096994067"/>
      <point x="145.278617949" y="291.635426242" type="curve" smooth="yes"/>
      <point x="145.278617949" y="213.138074567"/>
      <point x="141.602408932" y="108.660146084"/>
      <point x="105.896048808" y="-2.09760548416" type="curve" smooth="yes"/>
      <point x="85.4318553892" y="-60.4102931373"/>
      <point x="56.5567408493" y="-112.254848476"/>
      <point x="21.2411068719" y="-162.720867371" type="curve"/>
    </contour>
  </outline>
</glyph>
<glyph name="comma" format="1">
  <advance width="161.284422183"/>
  <unicode hex="002C"/>
  <outline>
    <contour>
      <point x="38.5878590824" y="-91.7026630228" type="line"/>
      <point x="68.1709293531" y="-91.7026630228" type="line"/>
      <point x="114.754779539" y="94.5498521911" type="line"/>
      <point x="61.929200032" y="94.5498521911" type="line"/>
    </contour>
  </outline>
</glyph>
<glyph name="hyphen" format="1">
  <advance width="302.494285135"/>
  <unicode hex="002D"/>
  <outline>
    <contour>
      <point x="57.7344400199" y="269.668032503" type="line"/>
      <point x="57.7344400199" y="229.171977861" type="line"/>
      <point x="245.08992821" y="229.171977861" type="line"/>
      <point x="245.08992821" y="269.668032503" type="line"/>
    </contour>
  </outline>
</glyph>
<glyph name="period" format="1">
  <advance width="161.284422183"/>
  <unicode hex="002E"/>
  <outline>
    <contour>
      <point x="56.928846922" y="93.6607815" type="line"/>
      <point x="56.928846922" y="0.0" type="line"/>
      <point x="104.685658356" y="0.0" type="line"/>
      <point x="104.685658356" y="93.6607815" type="line"/>
    </contour>
  </outline>
</glyph>
<glyph name="slash" format="1">
  <advance width="385.868565893"/>
  <unicode hex="002F"/>
  <outline>
    <contour>
      <point x="359.368097752" y="739.0" type="line"/>
      <point x="317.441853622" y="739.0" type="line"/>
      <point x="29.4850129824" y="-12.0" type="line"/>
      <point x="71.741340207" y="-12.0" type="line"/>
    </contour>
  </outline>
</glyph>
<glyph name="zero" format="1">
  <advance width="486.974965937"/>
  <unicode hex="0030"/>
  <outline>
    <contour>
      <point x="38.0453273486" y="346.330083095" type="line"/>
      <point x="38.0453273486" y="80.0575118104"/>
      <point x="120.387855206" y="-13.1385954747"/>
      <point x="243.536226285" y="-13.1385954747" type="curve" smooth="yes"/>
      <point x="369.409413158" y="-13.1385954747"/>
      <point x="448.791043113" y="83.1634031777"/>
      <point x="448.791043113" y="346.330083095" type="curve" smooth="yes"/>
      <point x="448.791043113" y="602.134709073"/>
      <point x="367.922819136" y="705.0"/>
      <point x="243.536226285" y="705.0" type="curve" smooth="yes"/>
      <point x="119.419992951" y="705.0"/>
      <point x="38.0453273486" y="602.370364674"/>
      <point x="38.0453273486" y="347.330083095" type="curve"/>
    </contour>
    <contour>
      <point x="243.536226285" y="668.789107601" type="line"/>
      <point x="329.680606829" y="668.789107601"/>
      <point x="398.784212732" y="564.314652088"/>
      <point x="398.784212732" y="345.631940597" type="curve" smooth="yes"/>
      <point x="398.784212732" y="101.174355174"/>
      <point x="330.224072805" y="23.0722969247"/>
      <point x="243.536226285" y="23.0722969247" type="curve" smooth="yes"/>
      <point x="157.37942148" y="23.0722969247"/>
      <point x="87.7220746351" y="100.640114462"/>
      <point x="87.7220746351" y="345.631940597" type="curve" smooth="yes"/>
      <point x="87.7220746351" y="565.018986259"/>
      <point x="156.75969189" y="668.789107601"/>
      <point x="242.536226285" y="668.789107601" type="curve"/>
    </contour>
  </outline>
</glyph>
<glyph name="one" format="1">
  <advance width="403.914134585"/>
  <unicode hex="0031"/>
  <outline>
    <contour>
      <point x="49.6169535524" y="612.183947776" type="line"/>
      <point x="68.4771868316" y="575.323199328" type="line"/>
      <point x="204.017179431" y="638.601610367" type="line"/>
      <point x="204.017179431" y="0.0" type="line"/>
      <point x="253.496313884" y="0.0" type="line"/>
      <point x="253.496313884" y="698.0" type="line"/>
      <point x="227.060941911" y="698.0" type="line"/>
    </contour>
  </outline>
</glyph>
<glyph name="two" format="1">
  <advance width="484.96258259"/>
  <unicode hex="0032"/>
  <outline>
    <contour>
      <point x="422.787596091" y="41.2099729264" type="line"/>
      <point x="110.286137341" y="41.2099729264" type="line"/>
      <point x="161.028073801" y="289.552954289"/>
      <point x="421.947565619" y="311.100124207"/>
      <point x="421.947565619" y="528.514538704" type="curve" smooth="yes"/>
      <point x="421.947565619" y="612.1840303"/>
      <point x="376.301965902" y="705.0"/>
      <point x="238.236109684" y="705.0" type="curve" smooth="yes"/>
      <point x="127.296590281" y="705.0"/>
      <point x="78.6961592478" y="633.879818981"/>
      <point x="63.3649615403" y="564.013921076" type="curve"/>
      <point x="115.144021345" y="561.606691917" type="line"/>
      <point x="126.158011073" y="617.327454106"/>
      <point x="161.339247975" y="668.789107601"/>
      <point x="236.784432831" y="668.789107601" type="curve" smooth="yes"/>
      <point x="346.212841096" y="668.789107601"/>
      <point x="371.84011607" y="589.481259903"/>
      <point x="371.84011607" y="527.146972269" type="curve" smooth="yes"/>
      <point x="371.84011607" y="337.92213664"/>
      <point x="101.369994539" y="305.783121092"/>
      <point x="53.2159554851" y="9.0" type="curve"/>
      <point x="61.6675589417" y="0.0" type="line"/>
      <point x="422.787596091" y="0.0" type="line"/>
    </contour>
  </outline>
</glyph>
<glyph name="three" format="1">
  <advance width="485.36505926"/>
  <unicode hex="0033"/>
  <outline>
    <contour>
      <point x="198.338099479" y="349.427694318" type="line"/>
      <point x="327.111533421" y="339.583845199"/>
      <point x="372.441958448" y="280.466585258"/>
      <point x="372.441958448" y="178.043841913" type="curve" smooth="yes"/>
      <point x="372.441958448" y="95.230652536"/>
      <point x="331.271872026" y="24.2768810472"/>
      <point x="239.785917968" y="24.2768810472" type="curve" smooth="yes"/>
      <point x="153.732620327" y="24.2768810472"/>
      <point x="119.90204045" y="77.6329967814"/>
      <point x="108.258823088" y="135.214123775" type="curve"/>
      <point x="57.8413443636" y="130.72946884" type="line"/>
      <point x="71.5930659166" y="54.3846757262"/>
      <point x="122.170916276" y="-12.1319772954"/>
      <point x="240.4209911" y="-12.1319772954" type="curve" smooth="yes"/>
      <point x="361.456938403" y="-12.1319772954"/>
      <point x="422.549407997" y="64.1211335718"/>
      <point x="422.549407997" y="184.030791765" type="curve" smooth="yes"/>
      <point x="422.549407997" y="309.420851809"/>
      <point x="351.883408683" y="361.148839156"/>
      <point x="264.217944453" y="370.120540166" type="curve"/>
      <point x="264.217944453" y="371.724468423" type="line"/>
      <point x="358.234286298" y="388.468371814"/>
      <point x="400.404080733" y="454.280062681"/>
      <point x="400.404080733" y="544.725154536" type="curve" smooth="yes"/>
      <point x="400.404080733" y="642.178838133"/>
      <point x="343.450291984" y="705.0"/>
      <point x="237.513805575" y="705.0" type="curve" smooth="yes"/>
      <point x="132.356200249" y="705.0"/>
      <point x="82.1443423235" y="642.464159643"/>
      <point x="74.2272987102" y="571.584032109" type="curve"/>
      <point x="123.805406829" y="568.287452546" type="line"/>
      <point x="129.711712598" y="617.456372664"/>
      <point x="158.749842233" y="668.789107601"/>
      <point x="238.660499327" y="668.789107601" type="curve" smooth="yes"/>
      <point x="319.125258606" y="668.789107601"/>
      <point x="351.129457006" y="612.462444587"/>
      <point x="351.129457006" y="542.355021929" type="curve" smooth="yes"/>
      <point x="351.129457006" y="464.881698741"/>
      <point x="318.864767955" y="400.300625534"/>
      <point x="198.338099479" y="387.131718587" type="curve"/>
    </contour>
  </outline>
</glyph>
<glyph name="four" format="1">
  <advance width="487.075371851"/>
  <unicode hex="0034"/>
  <outline>
    <contour>
      <point x="49.7834269503" y="223.696964317" type="line"/>
      <point x="49.7834269503" y="191.124277584" type="line"/>
      <point x="301.996792903" y="191.124277584" type="line"/>
      <point x="301.996792903" y="0.0" type="line"/>
      <point x="350.642535172" y="0.0" type="line"/>
      <point x="350.642535172" y="191.124277584" type="line"/>
      <point x="429.168318553" y="191.124277584" type="line"/>
      <point x="429.168318553" y="227.822256972" type="line"/>
      <point x="350.642535172" y="227.822256972" type="line"/>
      <point x="350.642535172" y="698.0" type="line"/>
      <point x="301.836636667" y="698.0" type="line"/>
    </contour>
    <contour>
      <point x="99.6339738285" y="227.822256972" type="line"/>
      <point x="211.967101586" y="436.16555986" type="line" smooth="yes"/>
      <point x="242.417451669" y="497.460951714"/>
      <point x="271.861396825" y="557.306213273"/>
      <point x="300.704686115" y="619.324487573" type="curve"/>
      <point x="303.295378014" y="619.324487573" type="line"/>
      <point x="302.163400718" y="555.335038909"/>
      <point x="301.996792903" y="491.877764687"/>
      <point x="301.996792903" y="427.19060003" type="curve" smooth="yes"/>
      <point x="301.996792903" y="227.822256972" type="line"/>
    </contour>
  </outline>
</glyph>
<glyph name="five" format="1">
  <advance width="486.4718701"/>
  <unicode hex="0035"/>
  <outline>
    <contour>
      <point x="82.6593938032" y="340.607172708" type="line"/>
      <point x="124.319291903" y="332.854271177" type="line"/>
      <point x="146.965582275" y="375.288192044"/>
      <point x="183.123598744" y="405.690701495"/>
      <point x="237.490092175" y="405.690701495" type="curve" smooth="yes"/>
      <point x="319.701346862" y="405.690701495"/>
      <point x="374.693096251" y="330.47372225"/>
      <point x="374.693096251" y="213.166254705" type="curve" smooth="yes"/>
      <point x="374.693096251" y="82.7985907217"/>
      <point x="311.563013388" y="23.708009816"/>
      <point x="233.798214746" y="23.708009816" type="curve" smooth="yes"/>
      <point x="153.807512415" y="23.708009816"/>
      <point x="118.969754931" y="81.7683256031"/>
      <point x="104.828579814" y="146.267535134" type="curve"/>
      <point x="54.9946887773" y="140.991016427" type="line"/>
      <point x="72.4383623521" y="59.4665857557"/>
      <point x="125.25699372" y="-12.0"/>
      <point x="234.891936021" y="-12.0" type="curve" smooth="yes"/>
      <point x="354.854130198" y="-12.0"/>
      <point x="424.435832185" y="69.8459559011"/>
      <point x="424.435832185" y="214.99894067" type="curve" smooth="yes"/>
      <point x="424.435832185" y="355.261070186"/>
      <point x="351.378163954" y="441.599736392"/>
      <point x="248.043568671" y="441.599736392" type="curve" smooth="yes"/>
      <point x="195.568424554" y="441.599736392"/>
      <point x="157.377190006" y="419.770363434"/>
      <point x="133.862183384" y="396.721910085" type="curve"/>
      <point x="131.563598274" y="396.721910085" type="line"/>
      <point x="167.36430556" y="652.126161985" type="line"/>
      <point x="391.298781276" y="652.126161985" type="line"/>
      <point x="395.245883391" y="692.0" type="line"/>
      <point x="130.106186042" y="692.0" type="line"/>
    </contour>
  </outline>
</glyph>
<glyph name="six" format="1">
  <advance width="486.371250933"/>
  <unicode hex="0036"/>
  <outline>
    <contour>
      <point x="99.5240499631" y="337.137511598" type="line"/>
      <point x="100.586066935" y="587.649134167"/>
      <point x="156.446211449" y="668.789107601"/>
      <point x="256.509433238" y="668.789107601" type="curve" smooth="yes"/>
      <point x="323.189313607" y="668.789107601"/>
      <point x="355.817761522" y="627.048643902"/>
      <point x="370.132162633" y="577.79250134" type="curve"/>
      <point x="418.632698183" y="582.895654196" type="line"/>
      <point x="398.659988439" y="660.440586598"/>
      <point x="342.586339899" y="705.0"/>
      <point x="255.591923701" y="705.0" type="curve" smooth="yes"/>
      <point x="109.588323056" y="705.0"/>
      <point x="49.7466835093" y="577.84383615"/>
      <point x="49.7466835093" y="303.903840635" type="curve" smooth="yes"/>
      <point x="49.7466835093" y="77.4597270764"/>
      <point x="115.993291604" y="-12.0"/>
      <point x="253.722921998" y="-12.0" type="curve" smooth="yes"/>
      <point x="392.405424816" y="-12.0"/>
      <point x="443.61970212" y="91.9639628756"/>
      <point x="443.61970212" y="216.985844168" type="curve" smooth="yes"/>
      <point x="443.61970212" y="358.20205163"/>
      <point x="373.355113113" y="440.656474228"/>
      <point x="255.173252573" y="440.656474228" type="curve" smooth="yes"/>
      <point x="169.049867425" y="440.656474228"/>
      <point x="119.344979667" y="394.545505603"/>
      <point x="101.155850703" y="337.137511598" type="curve"/>
    </contour>
    <contour>
      <point x="103.674641995" y="253.315406756" type="line"/>
      <point x="103.674641995" y="323.238800312"/>
      <point x="155.790798944" y="404.445581829"/>
      <point x="250.322104701" y="404.445581829" type="curve" smooth="yes"/>
      <point x="343.99768069" y="404.445581829"/>
      <point x="393.512252571" y="311.067406425"/>
      <point x="393.512252571" y="213.91423021" type="curve" smooth="yes"/>
      <point x="393.512252571" y="136.406916663"/>
      <point x="359.864015382" y="24.2108923995"/>
      <point x="252.229996446" y="24.2108923995" type="curve" smooth="yes"/>
      <point x="133.984565291" y="24.2108923995"/>
      <point x="103.674641995" y="144.387441178"/>
      <point x="103.674641995" y="252.315406756" type="curve"/>
    </contour>
  </outline>
</glyph>
<glyph name="seven" format="1">
  <advance width="464.964531059"/>
  <unicode hex="0037"/>
  <outline>
    <contour>
      <point x="398.419113029" y="692.0" type="line"/>
      <point x="59.2615084622" y="692.0" type="line"/>
      <point x="59.2615084622" y="651.120323422" type="line"/>
      <point x="344.267594442" y="651.120323422" type="line"/>
      <point x="344.267594442" y="648.48525029" type="line"/>
      <point x="148.290593998" y="0.0" type="line"/>
      <point x="204.336108104" y="0.0" type="line"/>
      <point x="398.419113029" y="674.3356874" type="line"/>
    </contour>
  </outline>
</glyph>
<glyph name="eight" format="1">
  <advance width="486.069393431"/>
  <unicode hex="0038"/>
  <outline>
    <contour>
      <point x="183.906134118" y="368.733119192" type="line"/>
      <point x="123.792464407" y="361.092494146"/>
      <point x="49.7569271902" y="313.157110472"/>
      <point x="49.7569271902" y="183.953086274" type="curve" smooth="yes"/>
      <point x="49.7569271902" y="51.89656199"/>
      <point x="130.039690257" y="-11.6699169047"/>
      <point x="243.265726911" y="-11.6699169047" type="curve" smooth="yes"/>
      <point x="361.504813713" y="-11.6699169047"/>
      <point x="436.479074056" y="55.2759851257"/>
      <point x="436.479074056" y="183.953086274" type="curve" smooth="yes"/>
      <point x="436.479074056" y="308.498476968"/>
      <point x="365.267185246" y="360.359581272"/>
      <point x="302.329867128" y="368.733119192" type="curve"/>
      <point x="302.329867128" y="369.965715655" type="line"/>
      <point x="356.567456771" y="376.719243074"/>
      <point x="421.592549429" y="406.372058619"/>
      <point x="421.592549429" y="529.680580156" type="curve" smooth="yes"/>
      <point x="421.592549429" y="638.625095993"/>
      <point x="351.938418693" y="705.0"/>
      <point x="243.265726911" y="705.0" type="curve" smooth="yes"/>
      <point x="131.538489349" y="705.0"/>
      <point x="64.8729157448" y="637.695489759"/>
      <point x="64.8729157448" y="529.680580156" type="curve" smooth="yes"/>
      <point x="64.8729157448" y="413.272245812"/>
      <point x="126.953513372" y="378.081350801"/>
      <point x="183.906134118" y="369.965715655" type="curve"/>
    </contour>
    <contour>
      <point x="114.021967103" y="525.682345706" type="line"/>
      <point x="114.021967103" y="617.507392184"/>
      <point x="162.641230667" y="668.789107601"/>
      <point x="243.265726911" y="668.789107601" type="curve" smooth="yes"/>
      <point x="325.368792296" y="668.789107601"/>
      <point x="372.113414976" y="612.675539622"/>
      <point x="372.113414976" y="525.782964874" type="curve" smooth="yes"/>
      <point x="372.113414976" y="419.906439187"/>
      <point x="316.586198245" y="385.483762206"/>
      <point x="243.265726911" y="385.483762206" type="curve" smooth="yes"/>
      <point x="160.678013526" y="385.483762206"/>
      <point x="114.021967103" y="427.741357824"/>
      <point x="114.021967103" y="524.682345706" type="curve"/>
    </contour>
    <contour>
      <point x="99.4336744767" y="185.43890068" type="line"/>
      <point x="99.4336744767" y="290.032943607"/>
      <point x="155.316060426" y="349.932756284"/>
      <point x="243.265726911" y="349.932756284" type="curve" smooth="yes"/>
      <point x="331.942255651" y="349.932756284"/>
      <point x="386.635718954" y="291.285461068"/>
      <point x="386.635718954" y="185.43890068" type="curve" smooth="yes"/>
      <point x="386.635718954" y="79.4610827882"/>
      <point x="323.812369675" y="24.5409754948"/>
      <point x="243.265726911" y="24.5409754948" type="curve" smooth="yes"/>
      <point x="162.340080582" y="24.5409754948"/>
      <point x="99.4336744767" y="77.4823370922"/>
      <point x="99.4336744767" y="184.43890068" type="curve"/>
    </contour>
  </outline>
</glyph>
<glyph name="nine" format="1">
  <advance width="486.773727602"/>
  <unicode hex="0039"/>
  <outline>
    <contour>
      <point x="391.707365693" y="355.862488402" type="line"/>
      <point x="389.680119098" y="131.641092562"/>
      <point x="341.811555978" y="24.1449037518"/>
      <point x="233.954858594" y="24.1449037518" type="curve" smooth="yes"/>
      <point x="159.490992542" y="24.1449037518"/>
      <point x="129.404249594" y="78.9292683913"/>
      <point x="111.823787907" y="134.960459219" type="curve"/>
      <point x="62.8580594315" y="129.388627793" type="line"/>
      <point x="85.7358080994" y="43.6415576905"/>
      <point x="136.894066959" y="-12.0"/>
      <point x="233.046013697" y="-12.0" type="curve" smooth="yes"/>
      <point x="397.103949064" y="-12.0"/>
      <point x="440.88080389" y="163.943290404"/>
      <point x="440.88080389" y="390.963335992" type="curve" smooth="yes"/>
      <point x="440.88080389" y="593.772790454"/>
      <point x="387.377897208" y="705.0"/>
      <point x="236.014935283" y="705.0" type="curve" smooth="yes"/>
      <point x="98.1769739329" y="705.0"/>
      <point x="47.1084044464" y="606.995980677"/>
      <point x="47.1084044464" y="478.786658033" type="curve" smooth="yes"/>
      <point x="47.1084044464" y="378.02569884"/>
      <point x="92.5238995776" y="252.343525772"/>
      <point x="235.224910755" y="252.343525772" type="curve" smooth="yes"/>
      <point x="329.968040561" y="252.343525772"/>
      <point x="376.923926265" y="313.578227322"/>
      <point x="390.075564953" y="355.862488402" type="curve"/>
    </contour>
    <contour>
      <point x="387.025452232" y="435.057677914" type="line"/>
      <point x="387.025452232" y="375.335489414"/>
      <point x="336.165912302" y="288.554418171"/>
      <point x="240.305382698" y="288.554418171" type="curve" smooth="yes"/>
      <point x="141.850546472" y="288.554418171"/>
      <point x="97.7191630852" y="390.911692381"/>
      <point x="97.7191630852" y="480.670196618" type="curve" smooth="yes"/>
      <point x="97.7191630852" y="575.537231695"/>
      <point x="132.061683911" y="668.789107601"/>
      <point x="238.296871786" y="668.789107601" type="curve" smooth="yes"/>
      <point x="349.748772861" y="668.789107601"/>
      <point x="387.025452232" y="574.149131848"/>
      <point x="387.025452232" y="436.057677914" type="curve"/>
    </contour>
  </outline>
</glyph>
<glyph name="colon" format="1">
  <advance width="161.284422183"/>
  <unicode hex="003A"/>
  <outline>
    <contour>
      <point x="56.928846922" y="488.66607815" type="line"/>
      <point x="56.928846922" y="395.00529665" type="line"/>
      <point x="104.685658356" y="395.00529665" type="line"/>
      <point x="104.685658356" y="488.66607815" type="line"/>
    </contour>
    <contour>
      <point x="56.928846922" y="93.6607815" type="line"/>
      <point x="56.928846922" y="0.0" type="line"/>
      <point x="104.685658356" y="0.0" type="line"/>
      <point x="104.685658356" y="93.6607815" type="line"/>
    </contour>
  </outline>
</glyph>
<glyph name="semicolon" format="1">
  <advance width="161.284422183"/>
  <unicode hex="003B"/>
  <outline>
    <contour>
      <point x="58.4387741911" y="488.66607815" type="line"/>
      <point x="58.4387741911" y="395.00529665" type="line"/>
      <point x="106.195585625" y="395.00529665" type="line"/>
      <point x="106.195585625" y="488.66607815" type="line"/>
    </contour>
    <contour>
      <point x="38.5878590824" y="-91.7026630228" type="line"/>
      <point x="68.1709293531" y="-91.7026630228" type="line"/>
      <point x="114.754779539" y="93.6607815" type="line"/>
      <point x="61.929200032" y="93.6607815" type="line"/>
    </contour>
  </outline>
</glyph>
<glyph name="question" format="1">
  <advance width="355.837209412"/>
  <unicode hex="003F"/>
  <outline>
    <contour>
      <point x="185.938458321" y="169.493820575" type="line"/>
      <point x="182.563640882" y="259.299425449"/>
      <point x="203.063291987" y="325.243180082"/>
      <point x="262.540294458" y="386.226397357" type="curve" smooth="yes"/>
      <point x="317.202186877" y="446.292998721"/>
      <point x="342.203187179" y="494.551854648"/>
      <point x="342.203187179" y="568.372843877" type="curve" smooth="yes"/>
      <point x="342.203187179" y="649.037142504"/>
      <point x="287.391315445" y="715.930385851"/>
      <point x="182.034242871" y="715.930385851" type="curve" smooth="yes"/>
      <point x="80.1284487859" y="715.930385851"/>
      <point x="22.7861809301" y="664.269552659"/>
      <point x="6.09974060791" y="561.486245752" type="curve"/>
      <point x="54.6822736534" y="555.293417891" type="line"/>
      <point x="67.7428904583" y="627.679538341"/>
      <point x="106.067661535" y="680.461517281"/>
      <point x="180.752239907" y="680.461517281" type="curve" smooth="yes"/>
      <point x="240.393790858" y="680.461517281"/>
      <point x="292.526439893" y="651.577585868"/>
      <point x="292.526439893" y="569.182555443" type="curve" smooth="yes"/>
      <point x="292.526439893" y="505.584153254"/>
      <point x="270.360197563" y="468.781412978"/>
      <point x="223.874257274" y="406.432821821" type="curve" smooth="yes"/>
      <point x="157.321309124" y="323.515579622"/>
      <point x="142.161899424" y="255.031591986"/>
      <point x="146.849938098" y="169.493820575" type="curve"/>
    </contour>
    <contour>
      <point x="144.042345192" y="93.6607815" type="line"/>
      <point x="144.042345192" y="0.0" type="line"/>
      <point x="191.469073531" y="0.0" type="line"/>
      <point x="191.469073531" y="93.6607815" type="line"/>
    </contour>
  </outline>
</glyph>
<glyph name="at" format="1">
  <advance width="627.722608793"/>
  <unicode hex="0040"/>
  <outline>
    <contour>
      <point x="458.248582639" y="138.246913461" type="line"/>
      <point x="419.115978659" y="117.732474399"/>
      <point x="372.10210868" y="103.197593928"/>
      <point x="305.775504695" y="103.197593928" type="curve" smooth="yes"/>
      <point x="177.530692689" y="103.197593928"/>
      <point x="76.610410267" y="180.271158845"/>
      <point x="76.610410267" y="315.202991211" type="curve" smooth="yes"/>
      <point x="76.610410267" y="393.627961184"/>
      <point x="108.428533103" y="458.91644207"/>
      <point x="160.184386296" y="504.672875198" type="curve" smooth="yes"/>
      <point x="212.012846316" y="550.831998249"/>
      <point x="279.214111292" y="576.308834621"/>
      <point x="356.763794387" y="576.308834621" type="curve" smooth="yes"/>
      <point x="426.961060243" y="576.308834621"/>
      <point x="476.336930873" y="557.365446173"/>
      <point x="509.781689325" y="529.485053694" type="curve" smooth="yes"/>
      <point x="545.750124478" y="500.03660328"/>
      <point x="560.953189085" y="458.812378273"/>
      <point x="560.953189085" y="414.381442651" type="curve" smooth="yes"/>
      <point x="560.953189085" y="358.10653856"/>
      <point x="535.819426133" y="309.496292345"/>
      <point x="505.273275833" y="276.664333108" type="curve" smooth="yes"/>
      <point x="480.412171529" y="250.051873832"/>
      <point x="450.885662515" y="236.56841928"/>
      <point x="428.445369903" y="236.669038447" type="curve" smooth="yes"/>
      <point x="400.059209239" y="236.56841928"/>
      <point x="389.555920657" y="256.723149887"/>
      <point x="403.086215538" y="300.592411993" type="curve" smooth="yes"/>
      <point x="459.955830754" y="484.130571487" type="line"/>
      <point x="423.32925207" y="484.130571487" type="line"/>
      <point x="416.11928957" y="455.756267523" type="line"/>
      <point x="414.053300923" y="455.756267523" type="line"/>
      <point x="404.391521713" y="476.433668791"/>
      <point x="383.199447622" y="484.967096206"/>
      <point x="355.200593921" y="484.967096206" type="curve" smooth="yes"/>
      <point x="312.76995852" y="484.967096206"/>
      <point x="271.958733577" y="466.854107265"/>
      <point x="234.880868122" y="427.527209994" type="curve" smooth="yes"/>
      <point x="199.298573526" y="389.915456937"/>
      <point x="174.937805741" y="343.102112437"/>
      <point x="174.937805741" y="286.80154109" type="curve" smooth="yes"/>
      <point x="174.937805741" y="235.671329745"/>
      <point x="201.033160141" y="208.712024755"/>
      <point x="243.99013232" y="208.712024755" type="curve" smooth="yes"/>
      <point x="293.961700008" y="208.712024755"/>
      <point x="340.241603521" y="247.724394529"/>
      <point x="365.359297401" y="285.435559732" type="curve"/>
      <point x="367.393788064" y="285.435559732" type="line"/>
      <point x="361.673898295" y="266.8723671"/>
      <point x="361.128494429" y="247.436426317"/>
      <point x="370.879389216" y="231.645169523" type="curve" smooth="yes"/>
      <point x="381.075129423" y="216.516164798"/>
      <point x="399.580071639" y="208.712024755"/>
      <point x="423.962647417" y="208.712024755" type="curve" smooth="yes"/>
      <point x="462.212079493" y="208.712024755"/>
      <point x="499.559391927" y="227.293532303"/>
      <point x="532.135741783" y="261.162108696" type="curve" smooth="yes"/>
      <point x="570.241220115" y="300.097753175"/>
      <point x="594.740037118" y="355.936490555"/>
      <point x="594.740037118" y="413.940849817" type="curve" smooth="yes"/>
      <point x="594.740037118" y="519.034764334"/>
      <point x="515.502182429" y="606.03254563"/>
      <point x="358.187039328" y="606.03254563" type="curve" smooth="yes"/>
      <point x="171.062043608" y="606.03254563"/>
      <point x="37.9912958397" y="481.737258661"/>
      <point x="37.9912958397" y="317.434881453" type="curve" smooth="yes"/>
      <point x="37.9912958397" y="168.926167145"/>
      <point x="148.453629105" y="73.9771920088"/>
      <point x="297.065371379" y="73.9771920088" type="curve" smooth="yes"/>
      <point x="361.422687994" y="73.9771920088"/>
      <point x="428.025444903" y="86.0047113822"/>
      <point x="475.351482525" y="117.497050063" type="curve"/>
    </contour>
    <contour>
      <point x="214.424449906" y="291.79906932" type="line"/>
      <point x="214.424449906" y="334.860738519"/>
      <point x="233.22721029" y="374.509914194"/>
      <point x="266.282101346" y="410.175138433" type="curve"/>
      <point x="294.414271387" y="442.559546222"/>
      <point x="327.656277727" y="457.31180016"/>
      <point x="359.556717489" y="457.31180016" type="curve" smooth="yes"/>
      <point x="393.11905621" y="457.31180016"/>
      <point x="405.435089651" y="440.257475467"/>
      <point x="405.435089651" y="428.60670688" type="curve" smooth="yes"/>
      <point x="405.435089651" y="419.579860946"/>
      <point x="394.697151509" y="386.691877028"/>
      <point x="382.760960774" y="352.881718848" type="curve" smooth="yes"/>
      <point x="366.304439126" y="306.13275781"/>
      <point x="305.332739415" y="241.698277915"/>
      <point x="256.839168766" y="241.698277915" type="curve" smooth="yes"/>
      <point x="226.529774012" y="241.698277915"/>
      <point x="214.424449906" y="260.18956994"/>
      <point x="214.424449906" y="290.79906932" type="curve"/>
    </contour>
  </outline>
</glyph>
<glyph name="A" format="1">
  <advance width="419.550310954"/>
  <unicode hex="0041"/>
  <outline>
    <contour>
      <point x="303.401925405" y="232.315111375" type="line"/>
      <point x="359.715032527" y="0.0" type="line"/>
      <point x="415.056139066" y="0.0" type="line"/>
      <point x="242.691395823" y="709.0" type="line"/>
      <point x="176.528832036" y="709.0" type="line"/>
      <point x="9.45465595827" y="0.0" type="line"/>
      <point x="64.1669544345" y="0.0" type="line"/>
      <point x="115.522849878" y="232.315111375" type="line"/>
    </contour>
    <contour>
      <point x="294.906672482" y="270.456742735" type="line"/>
      <point x="124.577649825" y="270.456742735" type="line"/>
      <point x="167.75909998" y="467.381681653" type="line" smooth="yes"/>
      <point x="181.369066481" y="531.695268672"/>
      <point x="194.409595387" y="596.873466147"/>
      <point x="206.946955061" y="668.192818333" type="curve"/>
      <point x="211.24191467" y="668.192818333" type="line"/>
      <point x="224.175346087" y="596.313919124"/>
      <point x="238.612086593" y="534.15543633"/>
      <point x="252.31939987" y="468.140574278" type="curve" smooth="yes"/>
    </contour>
  </outline>
</glyph>
<glyph name="B" format="1">
  <advance width="463.135754201"/>
  <unicode hex="0042"/>
  <outline>
    <contour>
      <point x="270.123370166" y="376.565812093" type="line"/>
      <point x="354.469689228" y="388.006758036"/>
      <point x="398.807376934" y="434.47576347"/>
      <point x="398.807376934" y="537.386600743" type="curve" smooth="yes"/>
      <point x="398.807376934" y="659.536060449"/>
      <point x="332.958514724" y="709.0"/>
      <point x="187.083017643" y="709.0" type="curve" smooth="yes"/>
      <point x="68.0448938048" y="709.0" type="line"/>
      <point x="68.0448938048" y="0.0" type="line"/>
      <point x="194.556770228" y="0.0" type="line" smooth="yes"/>
      <point x="320.592916117" y="0.0"/>
      <point x="426.093272738" y="43.9011271738"/>
      <point x="426.093272738" y="191.171140116" type="curve" smooth="yes"/>
      <point x="426.093272738" y="305.929611973"/>
      <point x="371.261034188" y="360.988803166"/>
      <point x="270.123370166" y="374.065988648" type="curve"/>
    </contour>
    <contour>
      <point x="372.788350212" y="193.670117484" type="curve" smooth="yes"/>
      <point x="372.788350212" y="73.1503153113"/>
      <point x="289.239649013" y="38.1416313602"/>
      <point x="192.360382129" y="38.1416313602" type="curve" smooth="yes"/>
      <point x="120.353441832" y="38.1416313602" type="line"/>
      <point x="120.353441832" y="353.851351895" type="line"/>
      <point x="199.554328845" y="353.851351895" type="line" smooth="yes"/>
      <point x="319.42143721" y="353.851351895"/>
      <point x="372.788350212" y="293.284827844"/>
    </contour>
    <contour>
      <point x="346.407813661" y="533.423276526" type="curve" smooth="yes"/>
      <point x="346.407813661" y="446.932225294"/>
      <point x="313.644675086" y="392.496292345"/>
      <point x="195.207150529" y="392.496292345" type="curve" smooth="yes"/>
      <point x="120.353441832" y="392.496292345" type="line"/>
      <point x="120.353441832" y="670.85836864" type="line"/>
      <point x="192.73185378" y="670.85836864" type="line" smooth="yes"/>
      <point x="298.688797114" y="670.85836864"/>
      <point x="346.407813661" y="625.758250273"/>
    </contour>
  </outline>
</glyph>
<glyph name="C" format="1">
  <advance width="484.432074456"/>
  <unicode hex="0043"/>
  <outline>
    <contour>
      <point x="396.755000008" y="176.299187746" type="line"/>
      <point x="382.150925359" y="110.096836593"/>
      <point x="339.636298992" y="23.2422505275"/>
      <point x="261.702953449" y="23.2422505275" type="curve" smooth="yes"/>
      <point x="176.937968997" y="23.2422505275"/>
      <point x="93.965894974" y="90.8139606064"/>
      <point x="93.965894974" y="353.798761665" type="curve" smooth="yes"/>
      <point x="93.965894974" y="613.097783065"/>
      <point x="179.749353108" y="685.691760825"/>
      <point x="263.551334868" y="685.691760825" type="curve" smooth="yes"/>
      <point x="330.401103576" y="685.691760825"/>
      <point x="368.00629164" y="632.7448064"/>
      <point x="385.819769361" y="548.288798124" type="curve"/>
      <point x="437.14972542" y="554.225762736" type="line"/>
      <point x="415.445770307" y="663.567717201"/>
      <point x="353.143023622" y="723.0"/>
      <point x="264.255882293" y="723.0" type="curve" smooth="yes"/>
      <point x="195.380987145" y="723.0"/>
      <point x="142.050782708" y="690.911910971"/>
      <point x="103.364469071" y="631.339867489" type="curve" smooth="yes"/>
      <point x="62.3950594606" y="568.037656877"/>
      <point x="40.5603532814" y="473.788764917"/>
      <point x="40.5603532814" y="356.10681084" type="curve" smooth="yes"/>
      <point x="40.5603532814" y="223.139214726"/>
      <point x="64.1372965431" y="132.520510488"/>
      <point x="103.775456652" y="73.7013812102" type="curve" smooth="yes"/>
      <point x="139.5385362" y="15.6399913237"/>
      <point x="195.579413274" y="-14.0"/>
      <point x="262.574108688" y="-14.0" type="curve" smooth="yes"/>
      <point x="362.026174221" y="-14.0"/>
      <point x="426.067493069" y="77.6419512167"/>
      <point x="448.355315583" y="168.910333028" type="curve"/>
    </contour>
  </outline>
</glyph>
<glyph name="D" format="1">
  <advance width="485.515350771"/>
  <unicode hex="0044"/>
  <outline>
    <contour>
      <point x="446.162427497" y="355.735552442" type="curve" smooth="yes"/>
      <point x="446.162427497" y="619.160828382"/>
      <point x="361.746746855" y="709.0"/>
      <point x="200.366166505" y="709.0" type="curve" smooth="yes"/>
      <point x="68.0448938048" y="709.0" type="line"/>
      <point x="68.0448938048" y="0.0" type="line"/>
      <point x="201.390626739" y="0.0" type="line" smooth="yes"/>
      <point x="371.891994189" y="0.0"/>
      <point x="446.162427497" y="107.258803434"/>
    </contour>
    <contour>
      <point x="393.0869689" y="355.003345788" type="curve" smooth="yes"/>
      <point x="393.0869689" y="127.239756453"/>
      <point x="329.925192512" y="38.1416313602"/>
      <point x="201.493457771" y="38.1416313602" type="curve" smooth="yes"/>
      <point x="120.353441832" y="38.1416313602" type="line"/>
      <point x="120.353441832" y="670.85836864" type="line"/>
      <point x="201.330262205" y="670.85836864" type="line" smooth="yes"/>
      <point x="332.176125195" y="670.85836864"/>
      <point x="393.0869689" y="579.947684699"/>
    </contour>
  </outline>
</glyph>
<glyph name="E" format="1">
  <advance width="409.416435539"/>
  <unicode hex="0045"/>
  <outline>
    <contour>
      <point x="120.353441832" y="355.642679437" type="line"/>
      <point x="120.353441832" y="670.85836864" type="line"/>
      <point x="357.891565491" y="670.85836864" type="line"/>
      <point x="357.891565491" y="709.0" type="line"/>
      <point x="68.0448938048" y="709.0" type="line"/>
      <point x="68.0448938048" y="0.0" type="line"/>
      <point x="366.019103989" y="0.0" type="line"/>
      <point x="366.019103989" y="38.1416313602" type="line"/>
      <point x="120.353441832" y="38.1416313602" type="line"/>
      <point x="120.353441832" y="317.170964981" type="line"/>
      <point x="310.860278467" y="317.170964981" type="line"/>
      <point x="310.860278467" y="355.642679437" type="line"/>
    </contour>
  </outline>
</glyph>
<glyph name="F" format="1">
  <advance width="397.175427107"/>
  <unicode hex="0046"/>
  <outline>
    <contour>
      <point x="120.353441832" y="0.0" type="line"/>
      <point x="120.353441832" y="351.396549443" type="line"/>
      <point x="309.75304112" y="351.396549443" type="line"/>
      <point x="309.75304112" y="390.041489893" type="line"/>
      <point x="120.353441832" y="390.041489893" type="line"/>
      <point x="120.353441832" y="670.85836864" type="line"/>
      <point x="357.09501569" y="670.85836864" type="line"/>
      <point x="357.09501569" y="709.0" type="line"/>
      <point x="68.0448938048" y="709.0" type="line"/>
      <point x="68.0448938048" y="0.0" type="line"/>
    </contour>
  </outline>
</glyph>
<glyph name="G" format="1">
  <advance width="481.98226449"/>
  <unicode hex="0047"/>
  <outline>
    <contour>
      <point x="432.969434633" y="322.037858653" type="line"/>
      <point x="271.631780366" y="322.037858653" type="line"/>
      <point x="271.631780366" y="283.392918203" type="line"/>
      <point x="382.27058003" y="283.392918203" type="line"/>
      <point x="382.27058003" y="63.4316714782" type="line"/>
      <point x="353.289135343" y="40.064798989"/>
      <point x="309.95959167" y="23.2422505275"/>
      <point x="265.469864019" y="23.2422505275" type="curve" smooth="yes"/>
      <point x="164.019966493" y="23.2422505275"/>
      <point x="93.965894974" y="131.260944697"/>
      <point x="93.965894974" y="354.735905552" type="curve" smooth="yes"/>
      <point x="93.965894974" y="592.73403657"/>
      <point x="183.839782679" y="685.757749472"/>
      <point x="262.286541136" y="685.757749472" type="curve" smooth="yes"/>
      <point x="323.602734439" y="685.757749472"/>
      <point x="354.700821012" y="647.845739259"/>
      <point x="380.278736635" y="559.45488049" type="curve"/>
      <point x="432.014515151" y="567.468711451" type="line"/>
      <point x="400.893619583" y="666.79297669"/>
      <point x="350.388827206" y="723.0"/>
      <point x="260.771515204" y="723.0" type="curve" smooth="yes"/>
      <point x="148.425971269" y="723.0"/>
      <point x="40.5603532814" y="639.053644222"/>
      <point x="40.5603532814" y="354.9713479" type="curve" smooth="yes"/>
      <point x="40.5603532814" y="101.981339408"/>
      <point x="124.031605252" y="-14.0"/>
      <point x="261.895467618" y="-14.0" type="curve" smooth="yes"/>
      <point x="336.330592557" y="-14.0"/>
      <point x="392.545370261" y="18.4972187536"/>
      <point x="432.969434633" y="53.5212123648" type="curve"/>
    </contour>
  </outline>
</glyph>
<glyph name="H" format="1">
  <advance width="512.84438681"/>
  <unicode hex="0048"/>
  <outline>
    <contour>
      <point x="445.302802094" y="709.0" type="line"/>
      <point x="392.994254068" y="709.0" type="line"/>
      <point x="392.994254068" y="390.354497875" type="line"/>
      <point x="120.353441832" y="390.354497875" type="line"/>
      <point x="120.353441832" y="709.0" type="line"/>
      <point x="68.0448938048" y="709.0" type="line"/>
      <point x="68.0448938048" y="0.0" type="line"/>
      <point x="120.353441832" y="0.0" type="line"/>
      <point x="120.353441832" y="351.882783419" type="line"/>
      <point x="392.994254068" y="351.882783419" type="line"/>
      <point x="392.994254068" y="0.0" type="line"/>
      <point x="445.302802094" y="0.0" type="line"/>
    </contour>
  </outline>
</glyph>
<glyph name="I" format="1">
  <advance width="195.816461407"/>
  <unicode hex="0049"/>
  <outline>
    <contour>
      <point x="123.810850172" y="0.0" type="line"/>
      <point x="123.810850172" y="709.0" type="line"/>
      <point x="71.5023021451" y="709.0" type="line"/>
      <point x="71.5023021451" y="0.0" type="line"/>
    </contour>
  </outline>
</glyph>
<glyph name="J" format="1">
  <advance width="325.483818567"/>
  <unicode hex="004A"/>
  <outline>
    <contour>
      <point x="10.8326929005" y="24.4854067074" type="line"/>
      <point x="38.2537186415" y="2.33829378578"/>
      <point x="68.0777140186" y="-14.0"/>
      <point x="117.965731514" y="-14.0" type="curve" smooth="yes"/>
      <point x="208.207760451" y="-14.0"/>
      <point x="259.922592567" y="51.3542369692"/>
      <point x="259.922592567" y="212.401783914" type="curve" smooth="yes"/>
      <point x="259.922592567" y="709.0" type="line"/>
      <point x="207.11073545" y="709.0" type="line"/>
      <point x="207.11073545" y="210.816690582" type="line" smooth="yes"/>
      <point x="207.11073545" y="72.7420193844"/>
      <point x="170.980711215" y="23.6383222705"/>
      <point x="108.990656774" y="23.6383222705" type="curve" smooth="yes"/>
      <point x="71.9393645782" y="23.6383222705"/>
      <point x="45.6866736824" y="40.5423616883"/>
      <point x="23.4456996298" y="61.9318217867" type="curve"/>
    </contour>
  </outline>
</glyph>
<glyph name="K" format="1">
  <advance width="441.329165942"/>
  <unicode hex="004B"/>
  <outline>
    <contour>
      <point x="118.57628758" y="319.385750724" type="line"/>
      <point x="119.850132742" y="387.526398398"/>
      <point x="120.353441832" y="433.423672844"/>
      <point x="120.353441832" y="513.883093169" type="curve" smooth="yes"/>
      <point x="120.353441832" y="709.0" type="line"/>
      <point x="68.0448938048" y="709.0" type="line"/>
      <point x="68.0448938048" y="0.0" type="line"/>
      <point x="120.353441832" y="0.0" type="line"/>
      <point x="120.353441832" y="248.136573464" type="line"/>
      <point x="192.20322945" y="364.388737216" type="line"/>
      <point x="369.681582734" y="0.0" type="line"/>
      <point x="428.589268308" y="0.0" type="line"/>
      <point x="222.111178273" y="409.822408605" type="line"/>
      <point x="392.641307842" y="709.0" type="line"/>
      <point x="334.916099074" y="709.0" type="line"/>
      <point x="225.075789793" y="513.625616901" type="line" smooth="yes"/>
      <point x="185.459292081" y="432.826362766"/>
      <point x="155.430407022" y="388.432184157"/>
      <point x="120.145372065" y="319.385750724" type="curve"/>
    </contour>
  </outline>
</glyph>
<glyph name="L" format="1">
  <advance width="382.622458845"/>
  <unicode hex="004C"/>
  <outline>
    <contour>
      <point x="360.873450256" y="38.1416313602" type="line"/>
      <point x="120.353441832" y="38.1416313602" type="line"/>
      <point x="120.353441832" y="709.0" type="line"/>
      <point x="68.0448938048" y="709.0" type="line"/>
      <point x="68.0448938048" y="0.0" type="line"/>
      <point x="360.873450256" y="0.0" type="line"/>
    </contour>
  </outline>
</glyph>
<glyph name="M" format="1">
  <advance width="703.023054287"/>
  <unicode hex="004D"/>
  <outline>
    <contour>
      <point x="351.02563994" y="54.3465372072" type="line"/>
      <point x="317.800088265" y="170.748800623"/>
      <point x="249.458542698" y="383.369015148"/>
      <point x="146.519726871" y="709.0" type="curve"/>
      <point x="68.0448938048" y="709.0" type="line"/>
      <point x="68.0448938048" y="0.0" type="line"/>
      <point x="117.01168161" y="0.0" type="line"/>
      <point x="117.01168161" y="327.916327865"/>
      <point x="116.810443275" y="549.165625326"/>
      <point x="112.62732671" y="664.316643864" type="curve"/>
      <point x="115.519949506" y="664.316643864" type="line"/>
      <point x="149.616443168" y="549.495708421"/>
      <point x="219.81443565" y="328.215052832"/>
      <point x="324.591043041" y="0.0" type="curve"/>
      <point x="378.654856994" y="0.0" type="line"/>
      <point x="485.396414294" y="333.165086904"/>
      <point x="554.570086399" y="550.106254857"/>
      <point x="588.128640451" y="664.316643864" type="curve"/>
      <point x="591.021263247" y="664.316643864" type="line"/>
      <point x="587.140004184" y="549.398361645"/>
      <point x="586.838146682" y="327.482279815"/>
      <point x="586.838146682" y="0.0" type="curve"/>
      <point x="636.537707505" y="0.0" type="line"/>
      <point x="636.537707505" y="709.0" type="line"/>
      <point x="557.559565349" y="709.0" type="line"/>
      <point x="454.988808925" y="386.520846981"/>
      <point x="385.942502681" y="171.318098361"/>
      <point x="353.55696137" y="54.3465372072" type="curve"/>
    </contour>
  </outline>
</glyph>
<glyph name="N" format="1">
  <advance width="512.091058474"/>
  <unicode hex="004E"/>
  <outline>
    <contour>
      <point x="397.438851958" y="58.1737830744" type="line"/>
      <point x="356.672555403" y="170.899570733"/>
      <point x="268.688871911" y="393.934486506"/>
      <point x="138.053666864" y="709.0" type="curve"/>
      <point x="68.0448938048" y="709.0" type="line"/>
      <point x="68.0448938048" y="0.0" type="line"/>
      <point x="117.077670258" y="0.0" type="line"/>
      <point x="117.077670258" y="318.032475886"/>
      <point x="116.206728271" y="539.113665626"/>
      <point x="113.030369742" y="650.826216926" type="curve"/>
      <point x="115.79742017" y="650.826216926" type="line"/>
      <point x="154.981182628" y="539.783582531"/>
      <point x="244.062352753" y="320.684271022"/>
      <point x="374.779915342" y="0.0" type="curve"/>
      <point x="443.945545502" y="0.0" type="line"/>
      <point x="443.945545502" y="709.0" type="line"/>
      <point x="394.683305121" y="709.0" type="line"/>
      <point x="394.683305121" y="394.399819288"/>
      <point x="395.45362794" y="171.49688081"/>
      <point x="400.469996833" y="58.1737830744" type="curve"/>
    </contour>
  </outline>
</glyph>
<glyph name="O" format="1">
  <advance width="532.199177371"/>
  <unicode hex="004F"/>
  <outline>
    <contour>
      <point x="40.5603532814" y="354.166607815" type="line"/>
      <point x="40.5603532814" y="86.7633917437"/>
      <point x="138.898783076" y="-14.0"/>
      <point x="266.186201683" y="-14.0" type="curve" smooth="yes"/>
      <point x="393.300394295" y="-14.0"/>
      <point x="491.538204922" y="86.7633917437"/>
      <point x="491.538204922" y="354.166607815" type="curve" smooth="yes"/>
      <point x="491.538204922" y="622.302596904"/>
      <point x="393.300394295" y="723.0"/>
      <point x="266.186201683" y="723.0" type="curve" smooth="yes"/>
      <point x="138.898783076" y="723.0"/>
      <point x="40.5603532814" y="622.302596904"/>
      <point x="40.5603532814" y="355.166607815" type="curve"/>
    </contour>
    <contour>
      <point x="266.186201683" y="685.691760825" type="line"/>
      <point x="356.656366382" y="685.691760825"/>
      <point x="438.13266323" y="600.014713565"/>
      <point x="438.13266323" y="353.96536948" type="curve" smooth="yes"/>
      <point x="438.13266323" y="109.051275083"/>
      <point x="356.656366382" y="23.3082391752"/>
      <point x="266.186201683" y="23.3082391752" type="curve" smooth="yes"/>
      <point x="175.945500911" y="23.3082391752"/>
      <point x="93.965894974" y="109.051275083"/>
      <point x="93.965894974" y="353.96536948" type="curve" smooth="yes"/>
      <point x="93.965894974" y="600.014713565"/>
      <point x="175.945500911" y="685.691760825"/>
      <point x="265.186201683" y="685.691760825" type="curve"/>
    </contour>
  </outline>
</glyph>
<glyph name="P" format="1">
  <advance width="458.69376664"/>
  <unicode hex="0050"/>
  <outline>
    <contour>
      <point x="120.353441832" y="0.0" type="line"/>
      <point x="120.353441832" y="304.405906833" type="line"/>
      <point x="195.500116566" y="304.405906833" type="line"/>
      <point x="350.444279683" y="304.405906833"/>
      <point x="426.949123453" y="360.090699459"/>
      <point x="426.949123453" y="508.342072219" type="curve" smooth="yes"/>
      <point x="426.949123453" y="639.053624612"/>
      <point x="364.568173769" y="709.0"/>
      <point x="207.143320756" y="709.0" type="curve" smooth="yes"/>
      <point x="68.0448938048" y="709.0" type="line"/>
      <point x="68.0448938048" y="0.0" type="line"/>
    </contour>
    <contour>
      <point x="120.353441832" y="343.380930378" type="curve"/>
      <point x="120.353441832" y="670.85836864" type="line"/>
      <point x="209.192159697" y="670.85836864" type="line" smooth="yes"/>
      <point x="325.8927062" y="670.85836864"/>
      <point x="373.54358176" y="616.65982406"/>
      <point x="373.54358176" y="509.213580568" type="curve" smooth="yes"/>
      <point x="373.54358176" y="389.447875708"/>
      <point x="318.569600873" y="343.649766807"/>
      <point x="196.628288476" y="343.405489649" type="curve" smooth="yes"/>
      <point x="196.505869494" y="343.388773107"/>
      <point x="120.488778801" y="343.380930378"/>
    </contour>
  </outline>
</glyph>
<glyph name="Q" format="1">
  <advance width="532.199177371"/>
  <unicode hex="0051"/>
  <outline>
    <contour>
      <point x="405.074470097" y="40.7447569004" type="line"/>
      <point x="458.858996693" y="96.4409533766"/>
      <point x="491.538204922" y="196.767903937"/>
      <point x="491.538204922" y="354.166607815" type="curve" smooth="yes"/>
      <point x="491.538204922" y="622.302596904"/>
      <point x="393.300394295" y="723.0"/>
      <point x="266.186201683" y="723.0" type="curve" smooth="yes"/>
      <point x="138.898783076" y="723.0"/>
      <point x="40.5603532814" y="622.302596904"/>
      <point x="40.5603532814" y="354.166607815" type="curve" smooth="yes"/>
      <point x="40.5603532814" y="86.7633917437"/>
      <point x="138.898783076" y="-14.0"/>
      <point x="266.186201683" y="-14.0" type="curve" smooth="yes"/>
      <point x="304.548022658" y="-14.0"/>
      <point x="341.520390069" y="-3.63282728916"/>
      <point x="371.261187567" y="18.5205769483" type="curve"/>
      <point x="475.018350512" y="-104.12158228" type="line"/>
      <point x="506.291258686" y="-75.3826675865" type="line"/>
    </contour>
    <contour>
      <point x="266.186201683" y="685.691760825" type="line"/>
      <point x="356.656366382" y="685.691760825"/>
      <point x="438.13266323" y="600.014713565"/>
      <point x="438.13266323" y="353.96536948" type="curve" smooth="yes"/>
      <point x="438.13266323" y="109.051275083"/>
      <point x="356.656366382" y="23.3082391752"/>
      <point x="266.186201683" y="23.3082391752" type="curve" smooth="yes"/>
      <point x="175.945500911" y="23.3082391752"/>
      <point x="93.965894974" y="109.051275083"/>
      <point x="93.965894974" y="353.96536948" type="curve" smooth="yes"/>
      <point x="93.965894974" y="600.014713565"/>
      <point x="175.945500911" y="685.691760825"/>
      <point x="265.186201683" y="685.691760825" type="curve"/>
    </contour>
  </outline>
</glyph>
<glyph name="R" format="1">
  <advance width="461.379132965"/>
  <unicode hex="0052"/>
  <outline>
    <contour>
      <point x="458.551318941" y="0.0" type="line"/>
      <point x="395.708981059" y="0.0" type="line"/>
      <point x="215.763340437" y="314.948724917" type="line"/>
      <point x="120.353441832" y="314.948724917" type="line"/>
      <point x="120.353441832" y="0.0" type="line"/>
      <point x="68.0448938048" y="0.0" type="line"/>
      <point x="68.0448938048" y="709.0" type="line"/>
      <point x="204.430494583" y="709.0" type="line" smooth="yes"/>
      <point x="338.843627162" y="709.0"/>
      <point x="420.967078322" y="657.905040522"/>
      <point x="420.967078322" y="512.73690416" type="curve" smooth="yes"/>
      <point x="420.967078322" y="382.296251102"/>
      <point x="348.509430087" y="332.579220293"/>
      <point x="266.104986595" y="321.799706188" type="curve"/>
    </contour>
    <contour>
      <point x="118.239586306" y="353.090569531" type="line" smooth="yes"/>
      <point x="140.385186252" y="353.090569531"/>
      <point x="261.767280731" y="371.713005849"/>
      <point x="261.767280731" y="436.136569329" type="curve" smooth="yes"/>
      <point x="330.386684547" y="501.566750988"/>
      <point x="352.462263939" y="555.763349545"/>
      <point x="332.329900352" y="597.643048574" type="curve" smooth="yes"/>
      <point x="332.329900352" y="637.236979281"/>
      <point x="305.292170181" y="670.85836864"/>
      <point x="201.61142483" y="670.85836864" type="curve"/>
      <point x="120.252822664" y="502.249823595" type="line"/>
    </contour>
  </outline>
</glyph>
<glyph name="S" format="1">
  <advance width="443.24344001"/>
  <unicode hex="0053"/>
  <outline>
    <contour>
      <point x="387.358022366" y="601.291844589" type="line"/>
      <point x="373.109470046" y="664.565171435"/>
      <point x="327.044792603" y="723.0"/>
      <point x="225.08572008" y="723.0" type="curve" smooth="yes"/>
      <point x="161.462615667" y="723.0"/>
      <point x="118.56518006" y="699.982178052"/>
      <point x="88.8341660572" y="667.500682693" type="curve" smooth="yes"/>
      <point x="59.3521908071" y="639.319578611"/>
      <point x="47.3969050437" y="600.483386894"/>
      <point x="47.3969050437" y="560.322630316" type="curve" smooth="yes"/>
      <point x="47.3969050437" y="507.089239869"/>
      <point x="67.6738634291" y="468.121304217"/>
      <point x="90.5928662359" y="440.981682193" type="curve" smooth="yes"/>
      <point x="111.72627034" y="415.644167623"/>
      <point x="135.292523307" y="394.783989327"/>
      <point x="206.628043802" y="351.99925107" type="curve" smooth="yes"/>
      <point x="276.871222682" y="306.628493072"/>
      <point x="299.518832487" y="291.00812946"/>
      <point x="318.658107936" y="271.872386807" type="curve" smooth="yes"/>
      <point x="337.414334746" y="248.301076587"/>
      <point x="354.595698035" y="217.948400144"/>
      <point x="354.595698035" y="173.375077842" type="curve" smooth="yes"/>
      <point x="354.595698035" y="138.706014848"/>
      <point x="343.363261937" y="103.702356565"/>
      <point x="323.704562374" y="78.4467402484" type="curve" smooth="yes"/>
      <point x="301.1823523" y="51.3112445271"/>
      <point x="267.309618121" y="23.3082391752"/>
      <point x="217.201681592" y="23.3082391752" type="curve" smooth="yes"/>
      <point x="139.129496036" y="23.3082391752"/>
      <point x="103.196291845" y="77.32308112"/>
      <point x="86.5044812781" y="118.321927886" type="curve"/>
      <point x="36.0919613606" y="112.283644822" type="line"/>
      <point x="55.1848024776" y="41.3222329478"/>
      <point x="106.458548793" y="-14.0"/>
      <point x="216.985307231" y="-14.0" type="curve" smooth="yes"/>
      <point x="291.571814996" y="-14.0"/>
      <point x="335.495883284" y="26.366359816"/>
      <point x="364.496090398" y="57.7473225745" type="curve" smooth="yes"/>
      <point x="393.811038263" y="90.9432026388"/>
      <point x="408.001239728" y="134.376564576"/>
      <point x="408.001239728" y="178.693364959" type="curve" smooth="yes"/>
      <point x="408.001239728" y="232.488234581"/>
      <point x="388.113535524" y="271.156065607"/>
      <point x="365.239127204" y="298.932726891" type="curve" smooth="yes"/>
      <point x="343.337526775" y="322.153766475"/>
      <point x="313.445956774" y="342.095562412"/>
      <point x="251.377709214" y="384.27447968" type="curve" smooth="yes"/>
      <point x="185.356249095" y="422.806840333"/>
      <point x="158.914196672" y="444.15049279"/>
      <point x="136.699468511" y="466.648982929" type="curve" smooth="yes"/>
      <point x="114.217653225" y="488.911390962"/>
      <point x="100.271478416" y="523.425576556"/>
      <point x="100.271478416" y="563.067300649" type="curve" smooth="yes"/>
      <point x="100.271478416" y="595.437638676"/>
      <point x="109.655393238" y="623.860002664"/>
      <point x="128.61609016" y="643.744073933" type="curve" smooth="yes"/>
      <point x="148.827718567" y="667.075429612"/>
      <point x="183.917033424" y="685.691760825"/>
      <point x="223.495161104" y="685.691760825" type="curve" smooth="yes"/>
      <point x="297.501497869" y="685.691760825"/>
      <point x="325.554096328" y="631.543348673"/>
      <point x="337.822709504" y="597.605112177" type="curve"/>
    </contour>
  </outline>
</glyph>
<glyph name="T" format="1">
  <advance width="409.303765431"/>
  <unicode hex="0054"/>
  <outline>
    <contour>
      <point x="389.233044802" y="709.0" type="line"/>
      <point x="19.7406375337" y="709.0" type="line"/>
      <point x="19.7406375337" y="670.85836864" type="line"/>
      <point x="178.530603026" y="670.85836864" type="line"/>
      <point x="178.530603026" y="0.0" type="line"/>
      <point x="230.839151053" y="0.0" type="line"/>
      <point x="230.839151053" y="670.85836864" type="line"/>
      <point x="389.233044802" y="670.85836864" type="line"/>
    </contour>
  </outline>
</glyph>
<glyph name="U" format="1">
  <advance width="485.597560723"/>
  <unicode hex="0055"/>
  <outline>
    <contour>
      <point x="421.988607702" y="709.0" type="line"/>
      <point x="369.909243889" y="709.0" type="line"/>
      <point x="369.909243889" y="216.415095267" type="line" smooth="yes"/>
      <point x="369.909243889" y="95.7962853538"/>
      <point x="348.119172812" y="23.3082391752"/>
      <point x="241.333340953" y="23.3082391752" type="curve" smooth="yes"/>
      <point x="138.180082515" y="23.3082391752"/>
      <point x="115.358233739" y="97.8407399837"/>
      <point x="115.358233739" y="216.415095267" type="curve" smooth="yes"/>
      <point x="115.358233739" y="709.0" type="line"/>
      <point x="63.6089530216" y="709.0" type="line"/>
      <point x="63.6089530216" y="216.860520921" type="line" smooth="yes"/>
      <point x="63.6089530216" y="55.2481788044"/>
      <point x="110.692219653" y="-14.0"/>
      <point x="241.232721786" y="-14.0" type="curve" smooth="yes"/>
      <point x="377.106439548" y="-14.0"/>
      <point x="421.988607702" y="57.6571337961"/>
      <point x="421.988607702" y="216.558663419" type="curve" smooth="yes"/>
    </contour>
  </outline>
</glyph>
<glyph name="V" format="1">
  <advance width="435.520335926"/>
  <unicode hex="0056"/>
  <outline>
    <contour>
      <point x="217.70359331" y="39.9938584701" type="line"/>
      <point x="194.331762014" y="160.778009359"/>
      <point x="170.755346596" y="259.689718853"/>
      <point x="147.22004002" y="361.768389272" type="curve" smooth="yes"/>
      <point x="67.6875650622" y="709.0" type="line"/>
      <point x="14.405902388" y="709.0" type="line"/>
      <point x="186.218495703" y="0.0" type="line"/>
      <point x="251.851496675" y="0.0" type="line"/>
      <point x="423.261400068" y="709.0" type="line"/>
      <point x="369.375809137" y="709.0" type="line"/>
      <point x="290.717975064" y="364.284934721" type="line" smooth="yes"/>
      <point x="266.547382102" y="261.907679191"/>
      <point x="243.499015722" y="161.774876824"/>
      <point x="220.83835003" y="39.9938584701" type="curve"/>
    </contour>
  </outline>
</glyph>
<glyph name="W" format="1">
  <advance width="678.264806808"/>
  <unicode hex="0057"/>
  <outline>
    <contour>
      <point x="341.526732325" y="662.134259065" type="line"/>
      <point x="359.76268111" y="540.658229352"/>
      <point x="378.341875953" y="435.453119481"/>
      <point x="397.993677623" y="326.409612265" type="curve" smooth="yes"/>
      <point x="456.90434829" y="0.0" type="line"/>
      <point x="523.048543375" y="0.0" type="line"/>
      <point x="666.307728452" y="709.0" type="line"/>
      <point x="614.365473081" y="709.0" type="line"/>
      <point x="552.719316433" y="374.763433257" type="line" smooth="yes"/>
      <point x="532.734438989" y="266.393395051"/>
      <point x="512.51675183" y="160.181946715"/>
      <point x="492.944454881" y="41.4968342582" type="curve"/>
      <point x="490.541978211" y="41.4968342582" type="line"/>
      <point x="471.834218321" y="158.920911406"/>
      <point x="452.126458431" y="266.46927427"/>
      <point x="432.880758932" y="375.704062789" type="curve" smooth="yes"/>
      <point x="372.910924115" y="709.0" type="line"/>
      <point x="307.837550498" y="709.0" type="line"/>
      <point x="248.87433386" y="377.956513789" type="line" smooth="yes"/>
      <point x="229.594003841" y="269.888333086"/>
      <point x="209.244339387" y="160.084246829"/>
      <point x="192.21973276" y="41.4968342582" type="curve"/>
      <point x="189.817256091" y="41.4968342582" type="line"/>
      <point x="169.873627347" y="158.917852267"/>
      <point x="148.416725546" y="268.520486936"/>
      <point x="128.431848103" y="377.824536494" type="curve" smooth="yes"/>
      <point x="66.3830015318" y="709.0" type="line"/>
      <point x="13.8368179037" y="709.0" type="line"/>
      <point x="158.706549417" y="0.0" type="line"/>
      <point x="224.750125335" y="0.0" type="line"/>
      <point x="282.2514879" y="322.279601099" type="line" smooth="yes"/>
      <point x="301.333991833" y="430.816453438"/>
      <point x="320.985793503" y="539.752443593"/>
      <point x="338.791040025" y="662.134259065" type="curve"/>
    </contour>
  </outline>
</glyph>
<glyph name="X" format="1">
  <advance width="447.775456481"/>
  <unicode hex="0058"/>
  <outline>
    <contour>
      <point x="226.070438757" y="406.886586946" type="line"/>
      <point x="224.372509512" y="406.886586946" type="line"/>
      <point x="92.8285867496" y="709.0" type="line"/>
      <point x="35.791769766" y="709.0" type="line"/>
      <point x="196.808933734" y="364.44903035" type="line"/>
      <point x="26.0711536699" y="0.0" type="line"/>
      <point x="83.4655800577" y="0.0" type="line"/>
      <point x="224.306520864" y="316.32062891" type="line"/>
      <point x="226.070438757" y="316.32062891" type="line"/>
      <point x="366.747904283" y="0.0" type="line"/>
      <point x="424.041711503" y="0.0" type="line"/>
      <point x="252.901241517" y="364.44903035" type="line"/>
      <point x="414.321095407" y="709.0" type="line"/>
      <point x="357.318908943" y="709.0" type="line"/>
    </contour>
  </outline>
</glyph>
<glyph name="Y" format="1">
  <advance width="403.861635166"/>
  <unicode hex="0059"/>
  <outline>
    <contour>
      <point x="392.140425664" y="709.0" type="line"/>
      <point x="336.702472252" y="709.0" type="line"/>
      <point x="270.460938874" y="526.555535631" type="line" smooth="yes"/>
      <point x="247.881530778" y="464.995708893"/>
      <point x="225.566217129" y="402.99542918"/>
      <point x="204.537985001" y="335.410335847" type="curve"/>
      <point x="202.208041763" y="335.410335847" type="line"/>
      <point x="179.958716762" y="402.901428192"/>
      <point x="156.917248275" y="463.797816347"/>
      <point x="134.633292755" y="525.926940821" type="curve" smooth="yes"/>
      <point x="67.586452928" y="709.0" type="line"/>
      <point x="11.6205903345" y="709.0" type="line"/>
      <point x="176.564394901" y="293.347403046" type="line"/>
      <point x="176.564394901" y="0.0" type="line"/>
      <point x="228.973562096" y="0.0" type="line"/>
      <point x="228.973562096" y="293.347403046" type="line"/>
    </contour>
  </outline>
</glyph>
<glyph name="Z" format="1">
  <advance width="390.432964097"/>
  <unicode hex="005A"/>
  <outline>
    <contour>
      <point x="37.4398401579" y="0.0" type="line"/>
      <point x="356.541400733" y="0.0" type="line"/>
      <point x="356.541400733" y="38.1416313602" type="line"/>
      <point x="95.723763743" y="38.1416313602" type="line"/>
      <point x="346.444026915" y="676.245497226" type="line"/>
      <point x="346.444026915" y="709.0" type="line"/>
      <point x="55.3417735898" y="709.0" type="line"/>
      <point x="55.3417735898" y="670.85836864" type="line"/>
      <point x="289.996414796" y="670.85836864" type="line"/>
      <point x="37.4398401579" y="32.3555117496" type="line"/>
    </contour>
  </outline>
</glyph>
<glyph name="bracketleft" format="1">
  <advance width="264.360701955"/>
  <unicode hex="005B"/>
  <outline>
    <contour>
      <point x="230.043416043" y="-156.0" type="line"/>
      <point x="230.043416043" y="-120.348235053" type="line"/>
      <point x="142.551907276" y="-120.348235053" type="line"/>
      <point x="142.551907276" y="703.348235053" type="line"/>
      <point x="230.043416043" y="703.348235053" type="line"/>
      <point x="230.043416043" y="739.0" type="line"/>
      <point x="93.5760819126" y="739.0" type="line"/>
      <point x="93.5760819126" y="-156.0" type="line"/>
    </contour>
  </outline>
</glyph>
<glyph name="backslash" format="1">
  <advance width="385.868565893"/>
  <unicode hex="005C"/>
  <outline>
    <contour>
      <point x="26.8305512366" y="739.0" type="line"/>
      <point x="314.960617871" y="-12.0" type="line"/>
      <point x="357.317564263" y="-12.0" type="line"/>
      <point x="68.7567953659" y="739.0" type="line"/>
    </contour>
  </outline>
</glyph>
<glyph name="bracketright" format="1">
  <advance width="262.850774686"/>
  <unicode hex="005D"/>
  <outline>
    <contour>
      <point x="32.5390046724" y="-156.0" type="line"/>
      <point x="169.336421898" y="-156.0" type="line"/>
      <point x="169.336421898" y="739.0" type="line"/>
      <point x="32.5390046724" y="739.0" type="line"/>
      <point x="32.5390046724" y="703.348235053" type="line"/>
      <point x="120.259977367" y="703.348235053" type="line"/>
      <point x="120.259977367" y="-120.348235053" type="line"/>
      <point x="32.5390046724" y="-120.348235053" type="line"/>
    </contour>
  </outline>
</glyph>
<glyph name="a" format="1">
  <advance width="396.057588729"/>
  <unicode hex="0061"/>
  <outline>
    <contour>
      <point x="352.748832239" y="0.0" type="line"/>
      <point x="352.748832239" y="3.86425734616" type="line"/>
      <point x="338.535363987" y="19.012583027"/>
      <point x="335.708589981" y="39.0117833037"/>
      <point x="335.708589981" y="83.2236454719" type="curve" smooth="yes"/>
      <point x="335.708589981" y="349.920040133" type="line" smooth="yes"/>
      <point x="335.708589981" y="500.42160488"/>
      <point x="294.083731793" y="544.0"/>
      <point x="196.726887241" y="544.0" type="curve" smooth="yes"/>
      <point x="95.6823303816" y="544.0"/>
      <point x="58.7970976491" y="476.09310806"/>
      <point x="51.4683126838" y="404.306556205" type="curve"/>
      <point x="101.122506339" y="400.579554092" type="line"/>
      <point x="105.377837204" y="455.50128134"/>
      <point x="132.074819831" y="511.614049595"/>
      <point x="195.063728373" y="511.614049595" type="curve" smooth="yes"/>
      <point x="266.856570641" y="511.614049595"/>
      <point x="286.996859065" y="459.680238822"/>
      <point x="286.996859065" y="365.220272642" type="curve" smooth="yes"/>
      <point x="286.996859065" y="344.676814798" type="line"/>
      <point x="98.5953041243" y="311.884978068"/>
      <point x="34.0990397257" y="237.816623427"/>
      <point x="34.0990397257" y="131.327717503" type="curve" smooth="yes"/>
      <point x="34.0990397257" y="38.8767801486"/>
      <point x="73.5692127619" y="-12.0"/>
      <point x="168.965839385" y="-12.0" type="curve" smooth="yes"/>
      <point x="213.388498653" y="-12.0"/>
      <point x="261.785490265" y="11.9257136933"/>
      <point x="288.29857671" y="43.9436545899" type="curve"/>
      <point x="289.402328412" y="43.9436545899" type="line"/>
      <point x="290.30484178" y="27.6041210022"/>
      <point x="292.986402131" y="11.9663755213"/>
      <point x="303.191992295" y="0.0" type="curve"/>
    </contour>
    <contour>
      <point x="287.062847713" y="86.622324499" type="line"/>
      <point x="255.783936771" y="39.7091085641"/>
      <point x="207.347836126" y="21.6970587181"/>
      <point x="178.388184663" y="21.6970587181" type="curve" smooth="yes"/>
      <point x="106.62665457" y="21.6970587181"/>
      <point x="84.2790961019" y="65.8355930699"/>
      <point x="84.2790961019" y="134.235996037" type="curve" smooth="yes"/>
      <point x="84.2790961019" y="220.929811253"/>
      <point x="141.670734781" y="285.437678392"/>
      <point x="287.062847713" y="313.871106293" type="curve"/>
    </contour>
  </outline>
</glyph>
<glyph name="b" format="1">
  <advance width="428.665134253"/>
  <unicode hex="0062"/>
  <outline>
    <contour>
      <point x="57.4823746116" y="0.0" type="line"/>
      <point x="105.552200963" y="0.0" type="line"/>
      <point x="104.652820131" y="53.9237799447" type="line"/>
      <point x="107.114880521" y="53.9237799447" type="line"/>
      <point x="127.488832572" y="31.3149662771"/>
      <point x="160.878779899" y="-12.0"/>
      <point x="227.630340686" y="-12.0" type="curve" smooth="yes"/>
      <point x="337.183965465" y="-12.0"/>
      <point x="392.294822472" y="87.146080833"/>
      <point x="392.294822472" y="265.260608803" type="curve" smooth="yes"/>
      <point x="392.294822472" y="456.944975525"/>
      <point x="325.79860213" y="544.0"/>
      <point x="230.324931079" y="544.0" type="curve" smooth="yes"/>
      <point x="176.543417267" y="544.0"/>
      <point x="137.919514327" y="513.850734338"/>
      <point x="107.593309805" y="477.850028519" type="curve"/>
      <point x="106.558819143" y="477.850028519" type="line"/>
      <point x="106.558819143" y="727.0" type="line"/>
      <point x="57.4823746116" y="727.0" type="line"/>
    </contour>
    <contour>
      <point x="106.558819143" y="422.473028704" type="line"/>
      <point x="137.196738058" y="468.862641334"/>
      <point x="174.834450655" y="506.86703328"/>
      <point x="220.101184569" y="506.86703328" type="curve" smooth="yes"/>
      <point x="296.247850374" y="506.86703328"/>
      <point x="342.114766096" y="422.621501578"/>
      <point x="342.618075186" y="264.556274632" type="curve" smooth="yes"/>
      <point x="343.121384276" y="110.980973624"/>
      <point x="296.404987189" y="25.1329667201"/>
      <point x="220.299150512" y="25.1329667201" type="curve" smooth="yes"/>
      <point x="158.610759231" y="25.1329667201"/>
      <point x="123.905818184" y="78.1383441993"/>
      <point x="106.558819143" y="118.690639722" type="curve"/>
    </contour>
  </outline>
</glyph>
<glyph name="c" format="1">
  <advance width="401.633777722"/>
  <unicode hex="0063"/>
  <outline>
    <contour>
      <point x="364.060121622" y="434.072018063" type="line"/>
      <point x="345.992859595" y="497.189560011"/>
      <point x="301.845371361" y="544.0"/>
      <point x="219.041787058" y="544.0" type="curve" smooth="yes"/>
      <point x="114.734233799" y="544.0"/>
      <point x="35.8670026906" y="463.605254129"/>
      <point x="35.8670026906" y="267.107237347" type="curve" smooth="yes"/>
      <point x="35.8670026906" y="57.8978151622"/>
      <point x="109.756701161" y="-12.0"/>
      <point x="216.726479944" y="-12.0" type="curve" smooth="yes"/>
      <point x="301.617738744" y="-12.0"/>
      <point x="353.129814607" y="35.7668376717"/>
      <point x="370.344723538" y="117.021569093" type="curve"/>
      <point x="320.504707289" y="121.795058425" type="line"/>
      <point x="306.002090949" y="58.7584154225"/>
      <point x="274.277089046" y="22.2152241211"/>
      <point x="217.195298371" y="22.2152241211" type="curve" smooth="yes"/>
      <point x="147.598474828" y="22.2152241211"/>
      <point x="86.0470590668" y="73.914885734"/>
      <point x="86.0470590668" y="266.874640884" type="curve" smooth="yes"/>
      <point x="86.0470590668" y="434.717761581"/>
      <point x="147.618815397" y="509.784775879"/>
      <point x="218.267905198" y="509.784775879" type="curve" smooth="yes"/>
      <point x="272.789635776" y="509.784775879"/>
      <point x="298.896980096" y="475.266690808"/>
      <point x="315.751426802" y="428.860928575" type="curve"/>
    </contour>
  </outline>
</glyph>
<glyph name="d" format="1">
  <advance width="428.665134253"/>
  <unicode hex="0064"/>
  <outline>
    <contour>
      <point x="323.509005032" y="53.9237799447" type="line"/>
      <point x="322.10631511" y="0.0" type="line"/>
      <point x="371.182759641" y="0.0" type="line"/>
      <point x="371.182759641" y="727.0" type="line"/>
      <point x="322.10631511" y="727.0" type="line"/>
      <point x="322.10631511" y="480.869883057" type="line"/>
      <point x="320.842360519" y="480.869883057" type="line"/>
      <point x="289.870979041" y="515.426650255"/>
      <point x="251.395841861" y="544.0"/>
      <point x="199.850130443" y="544.0" type="curve" smooth="yes"/>
      <point x="102.866532123" y="544.0"/>
      <point x="35.8670026906" y="457.951593705"/>
      <point x="35.8670026906" y="265.260608803" type="curve" smooth="yes"/>
      <point x="35.8670026906" y="83.3229789812"/>
      <point x="92.8896238772" y="-12.0"/>
      <point x="200.531484476" y="-12.0" type="curve" smooth="yes"/>
      <point x="270.270162015" y="-12.0"/>
      <point x="303.643740448" y="31.7691686865"/>
      <point x="321.147563809" y="53.9237799447" type="curve"/>
    </contour>
    <contour>
      <point x="207.862674651" y="25.1329667201" type="line"/>
      <point x="131.898632444" y="25.1329667201"/>
      <point x="85.0404408874" y="109.707768221"/>
      <point x="86.0470590668" y="264.556274632" type="curve" smooth="yes"/>
      <point x="86.5503681564" y="422.555512931"/>
      <point x="131.882616661" y="506.86703328"/>
      <point x="208.060640594" y="506.86703328" type="curve" smooth="yes"/>
      <point x="253.591329098" y="506.86703328"/>
      <point x="291.700992657" y="468.293343596"/>
      <point x="322.10631511" y="422.473028704" type="curve"/>
      <point x="322.10631511" y="118.690639722" type="line"/>
      <point x="302.952043492" y="75.2238342751"/>
      <point x="268.237211873" y="25.1329667201"/>
      <point x="208.862674651" y="25.1329667201" type="curve"/>
    </contour>
  </outline>
</glyph>
<glyph name="e" format="1">
  <advance width="407.497394112"/>
  <unicode hex="0065"/>
  <outline>
    <contour>
      <point x="374.949623858" y="261.711137663" type="line"/>
      <point x="374.949623858" y="359.828632263"/>
      <point x="356.972583888" y="436.263147434"/>
      <point x="323.929987515" y="484.793269677" type="curve" smooth="yes"/>
      <point x="293.980172837" y="524.152998239"/>
      <point x="255.007424374" y="544.0"/>
      <point x="208.926098324" y="544.0" type="curve" smooth="yes"/>
      <point x="159.03324711" y="544.0"/>
      <point x="118.557182622" y="525.024859698"/>
      <point x="87.9799596468" y="486.095640253" type="curve" smooth="yes"/>
      <point x="53.8719816045" y="442.150478421"/>
      <point x="35.8670026906" y="368.687251625"/>
      <point x="35.8670026906" y="271.399697245" type="curve" smooth="yes"/>
      <point x="35.8670026906" y="162.5202181"/>
      <point x="53.9789323018" y="91.7776209718"/>
      <point x="84.6909853936" y="48.9046394604" type="curve" smooth="yes"/>
      <point x="117.053447026" y="4.65210189179"/>
      <point x="163.541081565" y="-12.0"/>
      <point x="211.50863242" y="-12.0" type="curve" smooth="yes"/>
      <point x="264.23709462" y="-12.0"/>
      <point x="300.120567541" y="4.32500453873"/>
      <point x="325.182271617" y="28.9713680075" type="curve" smooth="yes"/>
      <point x="350.989911673" y="54.8288603819"/>
      <point x="366.431511744" y="87.8794332887"/>
      <point x="374.371815208" y="119.900101123" type="curve"/>
      <point x="325.33411273" y="124.642791754" type="line"/>
      <point x="303.363704512" y="54.3888290711"/>
      <point x="267.207207558" y="20.3859504045"/>
      <point x="212.160214303" y="20.3859504045" type="curve" smooth="yes"/>
      <point x="150.704612229" y="20.3859504045"/>
      <point x="88.1239254161" y="73.4604827456"/>
      <point x="86.1130477144" y="261.711137663" type="curve"/>
    </contour>
    <contour>
      <point x="86.0470590668" y="292.595051561" type="line"/>
      <point x="88.3218913592" y="463.307861174"/>
      <point x="146.557086673" y="511.614049595"/>
      <point x="208.731404773" y="511.614049595" type="curve" smooth="yes"/>
      <point x="271.22030366" y="511.614049595"/>
      <point x="320.524267045" y="434.214520549"/>
      <point x="324.480733085" y="292.595051561" type="curve"/>
    </contour>
  </outline>
</glyph>
<glyph name="f" format="1">
  <advance width="287.864901075"/>
  <unicode hex="0066"/>
  <outline>
    <contour>
      <point x="314.553393298" y="711.127692328" type="line"/>
      <point x="302.944059621" y="719.496478058"/>
      <point x="290.108747661" y="724.954026255"/>
      <point x="276.672853231" y="729.223359223" type="curve" smooth="yes"/>
      <point x="258.456085545" y="735.101858969"/>
      <point x="238.211165662" y="737.019501428"/>
      <point x="216.148942774" y="737.019501428" type="curve" smooth="yes"/>
      <point x="176.075921318" y="737.019501428"/>
      <point x="145.049947707" y="726.237601623"/>
      <point x="123.11269021" y="708.620909867" type="curve" smooth="yes"/>
      <point x="93.8348262223" y="681.14058785"/>
      <point x="81.9929030181" y="632.64354383"/>
      <point x="81.9929030181" y="568.949313483" type="curve" smooth="yes"/>
      <point x="81.9929030181" y="532.0" type="line"/>
      <point x="19.682001525" y="532.0" type="line"/>
      <point x="19.682001525" y="496.951383694" type="line"/>
      <point x="81.9929030181" y="496.951383694" type="line"/>
      <point x="81.9929030181" y="0.0" type="line"/>
      <point x="130.739264454" y="0.0" type="line"/>
      <point x="130.739264454" y="496.951383694" type="line"/>
      <point x="260.55643817" y="496.951383694" type="line"/>
      <point x="260.55643817" y="532.0" type="line"/>
      <point x="130.739264454" y="532.0" type="line"/>
      <point x="130.739264454" y="569.597476181" type="line" smooth="yes"/>
      <point x="130.739264454" y="630.029816811"/>
      <point x="141.915462618" y="666.744714094"/>
      <point x="162.402455703" y="684.278707872" type="curve" smooth="yes"/>
      <point x="179.209428058" y="697.685609767"/>
      <point x="200.03662817" y="702.665968482"/>
      <point x="223.822652978" y="702.665968482" type="curve" smooth="yes"/>
      <point x="243.055535689" y="702.665968482"/>
      <point x="261.093445135" y="699.421515319"/>
      <point x="275.438077386" y="693.835122361" type="curve" smooth="yes"/>
      <point x="288.719853525" y="689.377574164"/>
      <point x="298.603451934" y="683.391976928"/>
      <point x="305.415823175" y="676.985428144" type="curve"/>
    </contour>
  </outline>
</glyph>
<glyph name="g" format="1">
  <advance width="430.477346727"/>
  <unicode hex="0067"/>
  <outline>
    <contour>
      <point x="328.235447717" y="488.761532594" type="line"/>
      <point x="325.839375974" y="488.761532594" type="line"/>
      <point x="298.410679659" y="524.263368121"/>
      <point x="260.543822564" y="544.0"/>
      <point x="212.163999569" y="544.0" type="curve" smooth="yes"/>
      <point x="93.9576605834" y="544.0"/>
      <point x="36.3289232244" y="446.462621319"/>
      <point x="36.3289232244" y="261.951426902" type="curve" smooth="yes"/>
      <point x="36.3289232244" y="77.0875169269"/>
      <point x="108.586246459" y="-12.0"/>
      <point x="207.343564029" y="-12.0" type="curve" smooth="yes"/>
      <point x="267.610257825" y="-12.0"/>
      <point x="303.018540174" y="16.1238924886"/>
      <point x="324.996233075" y="39.7553196111" type="curve"/>
      <point x="326.732138627" y="39.7553196111" type="line"/>
      <point x="326.732138627" y="7.13171768868" type="line" smooth="yes"/>
      <point x="326.732138627" y="-90.8485728712"/>
      <point x="317.731478761" y="-142.119278563"/>
      <point x="296.547042463" y="-180.160280329" type="curve" smooth="yes"/>
      <point x="274.967774223" y="-212.449380867"/>
      <point x="240.423576582" y="-226.850764527"/>
      <point x="210.595315944" y="-226.850764527" type="curve" smooth="yes"/>
      <point x="184.301862381" y="-226.850764527"/>
      <point x="159.316911542" y="-220.241737606"/>
      <point x="141.368417494" y="-203.332039696" type="curve" smooth="yes"/>
      <point x="120.478780841" y="-187.697993113"/>
      <point x="108.124397875" y="-168.039066724"/>
      <point x="99.8314913639" y="-136.973458229" type="curve"/>
      <point x="51.6236954257" y="-143.341404818" type="line"/>
      <point x="66.4029432876" y="-184.18200255"/>
      <point x="88.3446735604" y="-211.84381544"/>
      <point x="111.280738806" y="-229.317979463" type="curve" smooth="yes"/>
      <point x="139.58299083" y="-250.952133122"/>
      <point x="172.998811729" y="-261.065988648"/>
      <point x="210.47804817" y="-261.065988648" type="curve" smooth="yes"/>
      <point x="262.667378509" y="-261.065988648"/>
      <point x="307.511362542" y="-241.503215586"/>
      <point x="334.101608623" y="-202.20467683" type="curve" smooth="yes"/>
      <point x="363.705017667" y="-154.665050805"/>
      <point x="375.707963991" y="-97.7220413123"/>
      <point x="375.707963991" y="11.7097546593" type="curve" smooth="yes"/>
      <point x="375.707963991" y="532.0" type="line"/>
      <point x="326.732138627" y="532.0" type="line"/>
    </contour>
    <contour>
      <point x="86.5089796005" y="262.574183148" type="line"/>
      <point x="86.5089796005" y="420.953424422"/>
      <point x="126.073804861" y="506.565389031"/>
      <point x="219.794334282" y="506.565389031" type="curve" smooth="yes"/>
      <point x="268.612924137" y="506.565389031"/>
      <point x="303.298010646" y="476.494615113"/>
      <point x="326.732138627" y="436.899465209" type="curve"/>
      <point x="326.732138627" y="94.9305147279" type="line"/>
      <point x="304.595821879" y="59.2373376735"/>
      <point x="271.098810742" y="25.4346109689"/>
      <point x="216.081062692" y="25.4346109689" type="curve" smooth="yes"/>
      <point x="139.604845776" y="25.4346109689"/>
      <point x="86.5089796005" y="113.084806058"/>
      <point x="86.5089796005" y="261.574183148" type="curve"/>
    </contour>
  </outline>
</glyph>
<glyph name="h" format="1">
  <advance width="426.757463893"/>
  <unicode hex="0068"/>
  <outline>
    <contour>
      <point x="372.893866917" y="0.0" type="line"/>
      <point x="372.893866917" y="394.087599807" type="line" smooth="yes"/>
      <point x="372.893866917" y="450.449461798"/>
      <point x="362.833023286" y="484.467930939"/>
      <point x="344.585763656" y="508.751340604" type="curve" smooth="yes"/>
      <point x="325.143670618" y="534.12896451"/>
      <point x="293.587768407" y="544.0"/>
      <point x="257.926621225" y="544.0" type="curve" smooth="yes"/>
      <point x="230.152478962" y="544.0"/>
      <point x="203.558180874" y="534.562606162"/>
      <point x="179.111809403" y="519.682513504" type="curve" smooth="yes"/>
      <point x="153.873500764" y="504.975786698"/>
      <point x="130.641810304" y="484.417332684"/>
      <point x="108.589964018" y="463.581527757" type="curve"/>
      <point x="106.558819143" y="463.581527757" type="line"/>
      <point x="106.558819143" y="727.0" type="line"/>
      <point x="57.4823746116" y="727.0" type="line"/>
      <point x="57.4823746116" y="0.0" type="line"/>
      <point x="106.558819143" y="0.0" type="line"/>
      <point x="106.558819143" y="414.789427631" type="line"/>
      <point x="126.683325545" y="443.419162102"/>
      <point x="156.652847071" y="469.803716683"/>
      <point x="179.131216429" y="483.916479199" type="curve" smooth="yes"/>
      <point x="201.543736997" y="498.334584862"/>
      <point x="223.858491218" y="505.217670198"/>
      <point x="244.620316595" y="505.217670198" type="curve" smooth="yes"/>
      <point x="274.738110913" y="505.217670198"/>
      <point x="293.201557498" y="494.502572336"/>
      <point x="304.92189388" y="478.731376398" type="curve" smooth="yes"/>
      <point x="320.736444503" y="456.012932748"/>
      <point x="323.314113296" y="417.1576465"/>
      <point x="323.314113296" y="375.644799949" type="curve" smooth="yes"/>
      <point x="323.314113296" y="0.0" type="line"/>
    </contour>
  </outline>
</glyph>
<glyph name="i" format="1">
  <advance width="171.358700357"/>
  <unicode hex="0069"/>
  <outline>
    <contour>
      <point x="110.418917405" y="645.500882775" type="line"/>
      <point x="110.418917405" y="728.99929378" type="line"/>
      <point x="60.9397829519" y="728.99929378" type="line"/>
      <point x="60.9397829519" y="645.500882775" type="line"/>
    </contour>
    <contour>
      <point x="110.418917405" y="532.0" type="line"/>
      <point x="60.9397829519" y="532.0" type="line"/>
      <point x="60.9397829519" y="0.0" type="line"/>
      <point x="110.418917405" y="0.0" type="line"/>
    </contour>
  </outline>
</glyph>
<glyph name="j" format="1">
  <advance width="171.358700357"/>
  <unicode hex="006A"/>
  <outline>
    <contour>
      <point x="110.318298238" y="645.500882775" type="line"/>
      <point x="110.318298238" y="728.99929378" type="line"/>
      <point x="60.8391637846" y="728.99929378" type="line"/>
      <point x="60.8391637846" y="645.500882775" type="line"/>
    </contour>
    <contour>
      <point x="-129.156431283" y="-211.278197391" type="line"/>
      <point x="-113.300218129" y="-221.33153615"/>
      <point x="-97.2079228671" y="-228.681707144"/>
      <point x="-80.8927818567" y="-234.041768709" type="curve" smooth="yes"/>
      <point x="-64.1156538518" y="-238.933151703"/>
      <point x="-46.4109194209" y="-242.278224033"/>
      <point x="-24.2914985107" y="-242.278224033" type="curve" smooth="yes"/>
      <point x="22.1472426004" y="-242.278224033"/>
      <point x="57.5115305053" y="-226.500836421"/>
      <point x="79.989580433" y="-195.621922844" type="curve" smooth="yes"/>
      <point x="101.374795778" y="-165.461379519"/>
      <point x="110.418917405" y="-119.636790634"/>
      <point x="110.418917405" y="-45.1015824013" type="curve" smooth="yes"/>
      <point x="110.418917405" y="532.0" type="line"/>
      <point x="60.9397829519" y="532.0" type="line"/>
      <point x="60.9397829519" y="-51.4651166378" type="line" smooth="yes"/>
      <point x="60.9397829519" y="-112.501260036"/>
      <point x="55.406355536" y="-149.991626352"/>
      <point x="41.0789583621" y="-174.518582381" type="curve" smooth="yes"/>
      <point x="23.596830581" y="-198.340757225"/>
      <point x="-5.1963919413" y="-207.258259827"/>
      <point x="-28.3910186313" y="-207.258259827" type="curve" smooth="yes"/>
      <point x="-51.8900283798" y="-207.258259827"/>
      <point x="-65.3760355306" y="-202.064806077"/>
      <point x="-75.1718980215" y="-198.125696061" type="curve" smooth="yes"/>
      <point x="-89.4402979442" y="-192.6749059"/>
      <point x="-100.625334285" y="-185.324874763"/>
      <point x="-111.926471995" y="-175.671019996" type="curve"/>
    </contour>
  </outline>
</glyph>
<glyph name="k" format="1">
  <advance width="371.736156402"/>
  <unicode hex="006B"/>
  <outline>
    <contour>
      <point x="187.069297151" y="321.598763133" type="line"/>
      <point x="331.937507653" y="532.0" type="line"/>
      <point x="274.51045749" y="532.0" type="line"/>
      <point x="189.926944102" y="410.367893401" type="line" smooth="yes"/>
      <point x="162.789442038" y="371.242854614"/>
      <point x="134.481846514" y="329.774496373"/>
      <point x="107.416738023" y="286.92484237" type="curve"/>
      <point x="104.847653539" y="286.92484237" type="line"/>
      <point x="106.055510053" y="329.930647254"/>
      <point x="106.558819143" y="368.150113535"/>
      <point x="106.558819143" y="412.034398058" type="curve" smooth="yes"/>
      <point x="106.558819143" y="727.0" type="line"/>
      <point x="57.4823746116" y="727.0" type="line"/>
      <point x="57.4823746116" y="0.0" type="line"/>
      <point x="106.558819143" y="0.0" type="line"/>
      <point x="106.558819143" y="224.525280593" type="line"/>
      <point x="156.514131847" y="280.833243099" type="line"/>
      <point x="306.594760951" y="0.0" type="line"/>
      <point x="366.290758191" y="0.0" type="line"/>
    </contour>
  </outline>
</glyph>
<glyph name="l" format="1">
  <advance width="171.358700357"/>
  <unicode hex="006C"/>
  <outline>
    <contour>
      <point x="110.418917405" y="0.0" type="line"/>
      <point x="110.418917405" y="727.0" type="line"/>
      <point x="60.9397829519" y="727.0" type="line"/>
      <point x="60.9397829519" y="0.0" type="line"/>
    </contour>
  </outline>
</glyph>
<glyph name="m" format="1">
  <advance width="626.466057026"/>
  <unicode hex="006D"/>
  <outline>
    <contour>
      <point x="572.09915096" y="0.0" type="line"/>
      <point x="572.09915096" y="401.374587423" type="line" smooth="yes"/>
      <point x="572.09915096" y="449.983862474"/>
      <point x="564.403374054" y="485.408580578"/>
      <point x="546.504672399" y="509.815596483" type="curve" smooth="yes"/>
      <point x="529.684982497" y="532.237601623"/>
      <point x="505.613174597" y="544.0"/>
      <point x="470.854494429" y="544.0" type="curve" smooth="yes"/>
      <point x="447.408075407" y="544.0"/>
      <point x="425.187215099" y="537.207996371"/>
      <point x="402.690403642" y="524.133563272" type="curve" smooth="yes"/>
      <point x="380.787703268" y="511.385940876"/>
      <point x="358.806804437" y="489.76818979"/>
      <point x="335.314078668" y="462.534367098" type="curve"/>
      <point x="332.817527614" y="462.534367098" type="line"/>
      <point x="330.098903493" y="480.920341953"/>
      <point x="320.915973138" y="503.949507126"/>
      <point x="306.532830997" y="518.517638458" type="curve" smooth="yes"/>
      <point x="290.646872734" y="534.22087962"/>
      <point x="269.20302682" y="544.0"/>
      <point x="239.949121968" y="544.0" type="curve" smooth="yes"/>
      <point x="219.124686512" y="544.0"/>
      <point x="196.743976425" y="537.506721338"/>
      <point x="175.702540719" y="524.862850645" type="curve" smooth="yes"/>
      <point x="153.7963547" y="512.052372136"/>
      <point x="131.818801657" y="491.456015211"/>
      <point x="107.555333498" y="463.326017617" type="curve"/>
      <point x="104.989521405" y="463.326017617" type="line"/>
      <point x="106.558819143" y="532.0" type="line"/>
      <point x="57.4823746116" y="532.0" type="line"/>
      <point x="57.4823746116" y="0.0" type="line"/>
      <point x="106.558819143" y="0.0" type="line"/>
      <point x="106.558819143" y="414.037366438" type="line"/>
      <point x="128.283161179" y="443.555277973"/>
      <point x="149.730172409" y="466.051442237"/>
      <point x="169.551647968" y="481.198835273" type="curve" smooth="yes"/>
      <point x="189.768915557" y="496.676171548"/>
      <point x="208.568643845" y="505.18631207"/>
      <point x="225.366406004" y="505.18631207" type="curve" smooth="yes"/>
      <point x="245.531127621" y="505.18631207"/>
      <point x="260.61800389" y="496.466562158"/>
      <point x="271.810151377" y="482.172415845" type="curve" smooth="yes"/>
      <point x="285.464359255" y="461.015272094"/>
      <point x="290.302850104" y="428.665614175"/>
      <point x="290.302850104" y="388.096875865" type="curve" smooth="yes"/>
      <point x="290.302850104" y="0.0" type="line"/>
      <point x="339.278675467" y="0.0" type="line"/>
      <point x="339.278675467" y="416.786648206" type="line"/>
      <point x="361.813422616" y="446.319548975"/>
      <point x="382.656505589" y="467.718226607"/>
      <point x="401.918434125" y="481.96623881" type="curve" smooth="yes"/>
      <point x="421.27756958" y="496.412216957"/>
      <point x="439.687704447" y="505.18631207"/>
      <point x="456.287500664" y="505.18631207" type="curve" smooth="yes"/>
      <point x="481.155743156" y="505.18631207"/>
      <point x="496.308608073" y="495.278207072"/>
      <point x="506.073185832" y="480.365143267" type="curve" smooth="yes"/>
      <point x="520.809891108" y="457.35947824"/>
      <point x="523.022706429" y="415.982994493"/>
      <point x="523.022706429" y="383.47571253" type="curve" smooth="yes"/>
      <point x="523.022706429" y="0.0" type="line"/>
    </contour>
  </outline>
</glyph>
<glyph name="n" format="1">
  <advance width="426.757463893"/>
  <unicode hex="006E"/>
  <outline>
    <contour>
      <point x="372.893866917" y="0.0" type="line"/>
      <point x="372.893866917" y="394.087599807" type="line" smooth="yes"/>
      <point x="372.893866917" y="450.449461798"/>
      <point x="362.833023286" y="484.467930939"/>
      <point x="344.585763656" y="508.751340604" type="curve" smooth="yes"/>
      <point x="325.143670618" y="534.12896451"/>
      <point x="293.587768407" y="544.0"/>
      <point x="257.926621225" y="544.0" type="curve" smooth="yes"/>
      <point x="230.152478962" y="544.0"/>
      <point x="203.558180874" y="534.760572105"/>
      <point x="179.111809403" y="519.682513504" type="curve" smooth="yes"/>
      <point x="153.873500764" y="504.208523017"/>
      <point x="129.981923827" y="481.695009665"/>
      <point x="108.52397537" y="459.118899806" type="curve"/>
      <point x="104.989521405" y="459.118899806" type="line"/>
      <point x="106.558819143" y="532.0" type="line"/>
      <point x="57.4823746116" y="532.0" type="line"/>
      <point x="57.4823746116" y="0.0" type="line"/>
      <point x="106.558819143" y="0.0" type="line"/>
      <point x="106.558819143" y="414.789427631" type="line"/>
      <point x="126.683325545" y="443.419162102"/>
      <point x="156.652847071" y="469.803716683"/>
      <point x="179.131216429" y="483.916479199" type="curve" smooth="yes"/>
      <point x="201.543736997" y="497.327966683"/>
      <point x="222.348563949" y="505.217670198"/>
      <point x="243.613698415" y="505.217670198" type="curve" smooth="yes"/>
      <point x="275.241420003" y="505.217670198"/>
      <point x="293.201557498" y="493.495954157"/>
      <point x="304.92189388" y="477.724758218" type="curve" smooth="yes"/>
      <point x="320.736444503" y="454.503005479"/>
      <point x="323.314113296" y="417.66095559"/>
      <point x="323.314113296" y="376.148109039" type="curve" smooth="yes"/>
      <point x="323.314113296" y="0.0" type="line"/>
    </contour>
  </outline>
</glyph>
<glyph name="o" format="1">
  <advance width="433.854270152"/>
  <unicode hex="006F"/>
  <outline>
    <contour>
      <point x="397.987267461" y="265.934011352" type="line"/>
      <point x="397.987267461" y="477.832944776"/>
      <point x="317.149875264" y="544.0"/>
      <point x="217.005563626" y="544.0" type="curve" smooth="yes"/>
      <point x="116.704394888" y="544.0"/>
      <point x="35.8670026906" y="477.832944776"/>
      <point x="35.8670026906" y="265.934011352" type="curve" smooth="yes"/>
      <point x="35.8670026906" y="73.5520094675"/>
      <point x="96.1604041618" y="-12.0"/>
      <point x="217.005563626" y="-12.0" type="curve" smooth="yes"/>
      <point x="338.865011844" y="-12.0"/>
      <point x="397.987267461" y="81.4823345961"/>
      <point x="397.987267461" y="264.934011352" type="curve"/>
    </contour>
    <contour>
      <point x="217.005563626" y="22.2152241211" type="line"/>
      <point x="136.843115799" y="22.2152241211"/>
      <point x="86.0470590668" y="88.9224160501"/>
      <point x="86.0470590668" y="265.899380833" type="curve" smooth="yes"/>
      <point x="86.0470590668" y="451.140492951"/>
      <point x="147.131929687" y="509.784775879"/>
      <point x="217.005563626" y="509.784775879" type="curve" smooth="yes"/>
      <point x="286.722340465" y="509.784775879"/>
      <point x="347.807211085" y="451.54296962"/>
      <point x="347.807211085" y="265.899380833" type="curve" smooth="yes"/>
      <point x="347.807211085" y="97.9815531582"/>
      <point x="298.895545951" y="22.2152241211"/>
      <point x="218.005563626" y="22.2152241211" type="curve"/>
    </contour>
  </outline>
</glyph>
<glyph name="p" format="1">
  <advance width="428.599145605"/>
  <unicode hex="0070"/>
  <outline>
    <contour>
      <point x="57.4163859639" y="-248.0" type="line"/>
      <point x="106.492830495" y="-248.0" type="line"/>
      <point x="106.492830495" y="45.8708345097" type="line"/>
      <point x="108.055510053" y="45.8708345097" type="line"/>
      <point x="123.818075329" y="27.794228964"/>
      <point x="142.840502574" y="12.959970595"/>
      <point x="161.106656654" y="3.48591364747" type="curve" smooth="yes"/>
      <point x="186.967574747" y="-9.86802270463"/>
      <point x="210.600548428" y="-12.0"/>
      <point x="228.224518229" y="-12.0" type="curve" smooth="yes"/>
      <point x="280.033644918" y="-12.0"/>
      <point x="319.918623782" y="10.5186715414"/>
      <point x="346.00598728" y="48.9494673074" type="curve" smooth="yes"/>
      <point x="375.001522236" y="90.694256989"/>
      <point x="392.228833825" y="159.444651874"/>
      <point x="392.228833825" y="265.920774994" type="curve" smooth="yes"/>
      <point x="392.228833825" y="368.397957941"/>
      <point x="374.881028424" y="435.719456728"/>
      <point x="347.648598064" y="479.46721898" type="curve" smooth="yes"/>
      <point x="317.194554823" y="525.832805715"/>
      <point x="277.085137298" y="544.0"/>
      <point x="228.245706073" y="544.0" type="curve" smooth="yes"/>
      <point x="200.183829359" y="544.0"/>
      <point x="178.199658136" y="536.714298138"/>
      <point x="158.223857968" y="525.844169448" type="curve" smooth="yes"/>
      <point x="135.097465768" y="512.546471029"/>
      <point x="118.768455575" y="492.530775575"/>
      <point x="107.253475996" y="477.145481095" type="curve"/>
      <point x="104.989521405" y="477.145481095" type="line"/>
      <point x="106.492830495" y="532.0" type="line"/>
      <point x="57.4163859639" y="532.0" type="line"/>
    </contour>
    <contour>
      <point x="106.492830495" y="422.473028704" type="line"/>
      <point x="122.391425075" y="454.814561603"/>
      <point x="141.899326289" y="476.427993641"/>
      <point x="160.608465837" y="489.204334597" type="curve" smooth="yes"/>
      <point x="181.690763453" y="502.772819039"/>
      <point x="200.467644525" y="506.86703328"/>
      <point x="219.861969927" y="506.86703328" type="curve" smooth="yes"/>
      <point x="258.584911797" y="506.86703328"/>
      <point x="288.790442034" y="486.553779264"/>
      <point x="309.615609555" y="451.655885165" type="curve" smooth="yes"/>
      <point x="331.22120372" y="412.589863737"/>
      <point x="342.552086538" y="349.665024061"/>
      <point x="342.552086538" y="265.216440822" type="curve" smooth="yes"/>
      <point x="342.552086538" y="160.707447892"/>
      <point x="326.818234083" y="103.497259465"/>
      <point x="307.032795745" y="73.3603639782" type="curve" smooth="yes"/>
      <point x="283.972925775" y="39.250894361"/>
      <point x="253.079217007" y="25.1329667201"/>
      <point x="220.05993587" y="25.1329667201" type="curve" smooth="yes"/>
      <point x="195.087728422" y="25.1329667201"/>
      <point x="174.228276556" y="33.2935227188"/>
      <point x="157.565764083" y="46.762767652" type="curve" smooth="yes"/>
      <point x="140.507319725" y="61.1313934178"/>
      <point x="123.575474285" y="80.7544363135"/>
      <point x="106.492830495" y="110.134385197" type="curve"/>
    </contour>
  </outline>
</glyph>
<glyph name="q" format="1">
  <advance width="428.665134253"/>
  <unicode hex="0071"/>
  <outline>
    <contour>
      <point x="371.182759641" y="-248.0" type="line"/>
      <point x="371.182759641" y="531.934011352" type="line"/>
      <point x="322.10631511" y="531.934011352" type="line"/>
      <point x="323.443016385" y="477.346719429" type="line"/>
      <point x="321.345669609" y="477.346719429" type="line"/>
      <point x="310.160633268" y="492.631394742"/>
      <point x="292.831762932" y="512.143781107"/>
      <point x="269.608023957" y="525.910158096" type="curve" smooth="yes"/>
      <point x="250.60748384" y="537.349584523"/>
      <point x="227.74881159" y="544.0"/>
      <point x="199.850130443" y="544.0" type="curve" smooth="yes"/>
      <point x="151.736574342" y="544.0"/>
      <point x="111.314002043" y="525.766817067"/>
      <point x="80.2906610638" y="479.071287094" type="curve" smooth="yes"/>
      <point x="52.655680639" y="435.094200771"/>
      <point x="35.8670026906" y="367.442758745"/>
      <point x="35.8670026906" y="265.920774994" type="curve" smooth="yes"/>
      <point x="35.8670026906" y="173.523437202"/>
      <point x="50.4180589088" y="96.4083488098"/>
      <point x="80.7320999743" y="50.6125597151" type="curve" smooth="yes"/>
      <point x="107.499410804" y="11.0086778117"/>
      <point x="147.214369605" y="-12.0"/>
      <point x="199.871318286" y="-12.0" type="curve" smooth="yes"/>
      <point x="218.171963029" y="-12.0"/>
      <point x="242.770166333" y="-9.36471361495"/>
      <point x="269.068404868" y="5.49915000621" type="curve" smooth="yes"/>
      <point x="286.022597622" y="14.5358865117"/>
      <point x="305.308979457" y="28.9988130864"/>
      <point x="320.644254719" y="47.3807617788" type="curve"/>
      <point x="322.10631511" y="47.3807617788" type="line"/>
      <point x="322.10631511" y="-248.0" type="line"/>
    </contour>
    <contour>
      <point x="322.10631511" y="110.134385197" type="line"/>
      <point x="304.693588225" y="80.7544363135"/>
      <point x="287.689135958" y="61.1973820655"/>
      <point x="271.536690611" y="48.2726949211" type="curve" smooth="yes"/>
      <point x="254.471488217" y="33.2935227188"/>
      <point x="233.008108093" y="25.1329667201"/>
      <point x="208.035900645" y="25.1329667201" type="curve" smooth="yes"/>
      <point x="175.058147921" y="25.1329667201"/>
      <point x="144.390277579" y="40.1816333218"/>
      <point x="120.55973168" y="74.9049217668" type="curve" smooth="yes"/>
      <point x="100.683564746" y="105.378378672"/>
      <point x="86.0470590668" y="164.255424865"/>
      <point x="86.0470590668" y="265.31705999" type="curve" smooth="yes"/>
      <point x="86.0470590668" y="333.052764963"/>
      <point x="96.339965578" y="408.393510813"/>
      <point x="118.14701133" y="449.13955297" type="curve" smooth="yes"/>
      <point x="140.333480218" y="487.789721514"/>
      <point x="170.30940667" y="506.86703328"/>
      <point x="208.233866589" y="506.86703328" type="curve" smooth="yes"/>
      <point x="227.62819199" y="506.86703328"/>
      <point x="247.411691242" y="502.838807687"/>
      <point x="267.660596672" y="489.204334597" type="curve" smooth="yes"/>
      <point x="286.196510227" y="476.427993641"/>
      <point x="305.704411441" y="454.814561603"/>
      <point x="322.10631511" y="422.473028704" type="curve"/>
    </contour>
  </outline>
</glyph>
<glyph name="r" format="1">
  <advance width="304.787017609"/>
  <unicode hex="0072"/>
  <outline>
    <contour>
      <point x="105.055510053" y="474.616804971" type="line"/>
      <point x="106.558819143" y="532.0" type="line"/>
      <point x="57.4823746116" y="532.0" type="line"/>
      <point x="57.4823746116" y="0.0" type="line"/>
      <point x="106.558819143" y="0.0" type="line"/>
      <point x="106.558819143" y="418.537243471" type="line"/>
      <point x="124.711470807" y="444.479978988"/>
      <point x="145.08070315" y="466.853630022"/>
      <point x="164.248483905" y="482.400293796" type="curve" smooth="yes"/>
      <point x="186.535005597" y="498.474793356"/>
      <point x="204.998099071" y="505.814840419"/>
      <point x="223.104543229" y="505.814840419" type="curve" smooth="yes"/>
      <point x="237.05922895" y="505.814840419"/>
      <point x="247.7940616" y="503.567254721"/>
      <point x="258.523795587" y="498.8013707" type="curve" smooth="yes"/>
      <point x="266.898706529" y="495.230320086"/>
      <point x="273.978164896" y="490.033733802"/>
      <point x="280.296977761" y="483.416195969" type="curve"/>
      <point x="288.646376074" y="522.163262428" type="line"/>
      <point x="280.104857317" y="528.48221515"/>
      <point x="273.122885583" y="533.248239029"/>
      <point x="263.490498372" y="537.517571997" type="curve" smooth="yes"/>
      <point x="251.516171366" y="541.943762066"/>
      <point x="238.111142098" y="544.0"/>
      <point x="224.244052439" y="544.0" type="curve" smooth="yes"/>
      <point x="200.089647899" y="544.0"/>
      <point x="179.522802723" y="535.786904965"/>
      <point x="160.619256272" y="524.829533323" type="curve" smooth="yes"/>
      <point x="141.080423436" y="511.792936675"/>
      <point x="124.657199002" y="494.158816695"/>
      <point x="107.155989363" y="474.616804971" type="curve"/>
    </contour>
  </outline>
</glyph>
<glyph name="s" format="1">
  <advance width="365.074945004"/>
  <unicode hex="0073"/>
  <outline>
    <contour>
      <point x="321.05141128" y="457.597168825" type="line"/>
      <point x="313.337832934" y="484.394797764"/>
      <point x="298.5869845" y="503.987702724"/>
      <point x="278.217784939" y="518.250877699" type="curve" smooth="yes"/>
      <point x="252.36623077" y="536.362360696"/>
      <point x="220.650705905" y="544.0"/>
      <point x="183.137478704" y="544.0" type="curve" smooth="yes"/>
      <point x="138.030853278" y="544.0"/>
      <point x="105.153019538" y="533.437673552"/>
      <point x="79.5245908317" y="513.778213581" type="curve" smooth="yes"/>
      <point x="53.9871704357" y="493.417478578"/>
      <point x="38.8275802637" y="460.796274629"/>
      <point x="38.8275802637" y="420.135341496" type="curve" smooth="yes"/>
      <point x="38.8275802637" y="390.363405658"/>
      <point x="47.6905244117" y="362.426828134"/>
      <point x="64.2613154183" y="339.97187889" type="curve" smooth="yes"/>
      <point x="83.6461370387" y="312.534698305"/>
      <point x="107.825322142" y="296.259826594"/>
      <point x="166.615132015" y="271.518209661" type="curve" smooth="yes"/>
      <point x="223.319172099" y="250.529220284"/>
      <point x="248.193860132" y="235.798060286"/>
      <point x="265.891209442" y="209.793375454" type="curve" smooth="yes"/>
      <point x="279.780933064" y="189.823887505"/>
      <point x="285.115761713" y="164.106637304"/>
      <point x="285.115761713" y="140.508407753" type="curve" smooth="yes"/>
      <point x="285.115761713" y="99.2902214881"/>
      <point x="276.070301042" y="70.8267486574"/>
      <point x="260.406949428" y="52.2067718358" type="curve" smooth="yes"/>
      <point x="239.351898408" y="29.8455110843"/>
      <point x="210.208385143" y="19.9901583753"/>
      <point x="180.642820383" y="19.9901583753" type="curve" smooth="yes"/>
      <point x="128.370249505" y="19.9901583753"/>
      <point x="88.3447508484" y="43.9812738453"/>
      <point x="74.8627629242" y="86.7317548002" type="curve"/>
      <point x="29.2443198405" y="80.9328262353" type="line"/>
      <point x="40.9495541738" y="48.2097633166"/>
      <point x="61.1377230493" y="23.0972537699"/>
      <point x="85.2213073174" y="10.8160304223" type="curve" smooth="yes"/>
      <point x="113.048194933" y="-6.627341836"/>
      <point x="146.990124588" y="-12.0"/>
      <point x="183.309457961" y="-12.0" type="curve" smooth="yes"/>
      <point x="232.75305744" y="-12.0"/>
      <point x="271.359758982" y="5.66329872532"/>
      <point x="297.394010145" y="33.0046721575" type="curve" smooth="yes"/>
      <point x="324.327715537" y="62.6580803118"/>
      <point x="335.528554409" y="98.4823287609"/>
      <point x="335.528554409" y="145.955966138" type="curve" smooth="yes"/>
      <point x="335.528554409" y="184.471592113"/>
      <point x="325.172331599" y="213.397252517"/>
      <point x="309.619875614" y="233.349032529" type="curve" smooth="yes"/>
      <point x="290.200563331" y="259.590000047"/>
      <point x="262.481619282" y="277.955880067"/>
      <point x="203.06014159" y="304.578616207" type="curve" smooth="yes"/>
      <point x="139.99444703" y="331.320233139"/>
      <point x="123.259834569" y="340.808692851"/>
      <point x="106.534612776" y="363.205963781" type="curve" smooth="yes"/>
      <point x="93.415638479" y="379.640644655"/>
      <point x="87.2757096991" y="403.46323947"/>
      <point x="87.2757096991" y="424.457187654" type="curve" smooth="yes"/>
      <point x="87.2757096991" y="453.904291591"/>
      <point x="96.5125181335" y="476.745361286"/>
      <point x="111.987654518" y="491.478840524" type="curve" smooth="yes"/>
      <point x="130.212445888" y="505.569035538"/>
      <point x="157.160985888" y="512.009841625"/>
      <point x="183.83030235" y="512.009841625" type="curve" smooth="yes"/>
      <point x="236.708181144" y="512.009841625"/>
      <point x="267.56781882" y="482.969479618"/>
      <point x="278.088949458" y="452.093692836" type="curve"/>
    </contour>
  </outline>
</glyph>
<glyph name="t" format="1">
  <advance width="334.451834449"/>
  <unicode hex="0074"/>
  <outline>
    <contour>
      <point x="89.8934761021" y="532.0" type="line"/>
      <point x="14.5363876111" y="532.0" type="line"/>
      <point x="14.5363876111" y="496.951383694" type="line"/>
      <point x="89.8934761021" y="496.951383694" type="line"/>
      <point x="89.8934761021" y="153.825642076" type="line" smooth="yes"/>
      <point x="89.8934761021" y="27.6928711963"/>
      <point x="148.777794299" y="-12.0"/>
      <point x="222.41844838" y="-12.0" type="curve" smooth="yes"/>
      <point x="265.741606935" y="-12.0"/>
      <point x="301.549966681" y="4.22212595626"/>
      <point x="322.686177252" y="15.8029543262" type="curve"/>
      <point x="310.549233018" y="50.1502222033" type="line"/>
      <point x="294.551332469" y="39.2505346142"/>
      <point x="265.329199978" y="22.9193450392"/>
      <point x="230.491142673" y="22.9193450392" type="curve" smooth="yes"/>
      <point x="179.391910202" y="22.9193450392"/>
      <point x="138.969920633" y="65.8976579929"/>
      <point x="138.969920633" y="173.988571501" type="curve" smooth="yes"/>
      <point x="138.969920633" y="496.951383694" type="line"/>
      <point x="288.100329055" y="496.951383694" type="line"/>
      <point x="288.100329055" y="532.0" type="line"/>
      <point x="138.969920633" y="532.0" type="line"/>
      <point x="138.969920633" y="646.146127389" type="line"/>
      <point x="89.8934761021" y="646.146127389" type="line"/>
    </contour>
  </outline>
</glyph>
<glyph name="u" format="1">
  <advance width="428.209074286"/>
  <unicode hex="0075"/>
  <outline>
    <contour>
      <point x="54.5681444012" y="532.0" type="line"/>
      <point x="54.5681444012" y="137.912400193" type="line" smooth="yes"/>
      <point x="54.5681444012" y="81.5505382019"/>
      <point x="64.0250597746" y="47.5320690611"/>
      <point x="82.2723194045" y="23.2486593958" type="curve" smooth="yes"/>
      <point x="101.81503161" y="-2.12896451048"/>
      <point x="134.433370363" y="-12.0"/>
      <point x="169.490589288" y="-12.0" type="curve" smooth="yes"/>
      <point x="199.587283929" y="-12.0"/>
      <point x="228.063894673" y="-1.77060253268"/>
      <point x="254.031210971" y="14.2063439338" type="curve" smooth="yes"/>
      <point x="277.348950935" y="29.3567961085"/>
      <point x="297.915796111" y="50.1263056317"/>
      <point x="320.289027173" y="69.968935056" type="curve"/>
      <point x="323.320172048" y="69.968935056" type="line"/>
      <point x="321.75087431" y="0.0" type="line"/>
      <point x="371.230008764" y="0.0" type="line"/>
      <point x="371.230008764" y="532.0" type="line"/>
      <point x="321.75087431" y="532.0" type="line"/>
      <point x="321.75087431" y="116.981388155" type="line"/>
      <point x="297.844375797" y="85.0819011451"/>
      <point x="271.891949491" y="62.3530005615"/>
      <point x="251.196252618" y="48.5703211403" type="curve" smooth="yes"/>
      <point x="228.158615951" y="34.0614868807"/>
      <point x="204.655926215" y="26.7823298022"/>
      <point x="184.133595193" y="26.7823298022" type="curve" smooth="yes"/>
      <point x="151.789469481" y="26.7823298022"/>
      <point x="133.600287629" y="38.9909860395"/>
      <point x="122.266272276" y="53.4418495967" type="curve" smooth="yes"/>
      <point x="105.791555462" y="76.6636023358"/>
      <point x="103.543969765" y="114.685496399"/>
      <point x="103.543969765" y="156.85850914" type="curve" smooth="yes"/>
      <point x="103.543969765" y="532.0" type="line"/>
    </contour>
  </outline>
</glyph>
<glyph name="v" format="1">
  <advance width="369.410730994"/>
  <unicode hex="0076"/>
  <outline>
    <contour>
      <point x="183.042206629" y="33.0578671177" type="line"/>
      <point x="164.032236127" y="126.794605575"/>
      <point x="143.452688174" y="211.60772939"/>
      <point x="123.74464857" y="291.783907447" type="curve" smooth="yes"/>
      <point x="64.003225286" y="532.0" type="line"/>
      <point x="11.5927178511" y="532.0" type="line"/>
      <point x="156.283790507" y="0.0" type="line"/>
      <point x="211.658261917" y="0.0" type="line"/>
      <point x="356.852643662" y="532.0" type="line"/>
      <point x="305.174909245" y="532.0" type="line"/>
      <point x="245.600093776" y="292.947382728" type="line" smooth="yes"/>
      <point x="223.771580467" y="185.586535407"/>
      <point x="205.132662046" y="128.114937957"/>
      <point x="186.23654707" y="33.0578671177" type="curve"/>
    </contour>
  </outline>
</glyph>
<glyph name="w" format="1">
  <advance width="624.50808658"/>
  <unicode hex="0077"/>
  <outline>
    <contour>
      <point x="313.667943567" y="490.97490345" type="line"/>
      <point x="331.008203482" y="405.089885964"/>
      <point x="348.87999808" y="340.721633816"/>
      <point x="367.456340102" y="245.758624687" type="curve" smooth="yes"/>
      <point x="423.247449601" y="0.0" type="line"/>
      <point x="482.631598329" y="0.0" type="line"/>
      <point x="611.776986507" y="532.0" type="line"/>
      <point x="563.44371834" y="532.0" type="line"/>
      <point x="508.902133625" y="290.082831797" type="line" smooth="yes"/>
      <point x="491.099953176" y="210.056326298"/>
      <point x="472.624370178" y="129.831714999"/>
      <point x="455.467366686" y="37.5421280294" type="curve"/>
      <point x="451.769577298" y="37.5421280294" type="line"/>
      <point x="434.397959255" y="124.00007569"/>
      <point x="415.516413943" y="209.327112321"/>
      <point x="396.808094626" y="289.381843413" type="curve" smooth="yes"/>
      <point x="340.752890679" y="532.0" type="line"/>
      <point x="283.740206666" y="532.0" type="line"/>
      <point x="227.6503722" y="288.954273685" type="line" smooth="yes"/>
      <point x="208.841433715" y="208.965531241"/>
      <point x="191.050756857" y="128.853322413"/>
      <point x="173.182447903" y="37.5421280294" type="curve"/>
      <point x="169.484658515" y="37.5421280294" type="line"/>
      <point x="153.227035856" y="128.658489005"/>
      <point x="133.449382103" y="217.102653554"/>
      <point x="116.581213006" y="284.373205816" type="curve" smooth="yes"/>
      <point x="61.1336292791" y="532.0" type="line"/>
      <point x="13.1024318671" y="532.0" type="line"/>
      <point x="142.678522307" y="0.0" type="line"/>
      <point x="201.402504846" y="0.0" type="line"/>
      <point x="257.186996165" y="240.511059097" type="line" smooth="yes"/>
      <point x="275.936564181" y="332.627439682"/>
      <point x="293.217453628" y="400.393496342"/>
      <point x="310.192999928" y="490.97490345" type="curve"/>
    </contour>
  </outline>
</glyph>
<glyph name="y" format="1">
  <advance width="378.293903298"/>
  <unicode hex="0079"/>
  <outline>
    <contour>
      <point x="366.545034566" y="532.0" type="line"/>
      <point x="315.665282198" y="532.0" type="line"/>
      <point x="266.758637293" y="312.541027587" type="line" smooth="yes"/>
      <point x="250.83495659" y="241.119616751"/>
      <point x="233.090906808" y="168.318503065"/>
      <point x="216.742928768" y="86.5223145071" type="curve"/>
      <point x="213.909889693" y="86.5223145071" type="line"/>
      <point x="191.884650243" y="163.815333833"/>
      <point x="166.126917489" y="239.969377829"/>
      <point x="141.730486101" y="311.513015247" type="curve" smooth="yes"/>
      <point x="70.0149691717" y="532.0" type="line"/>
      <point x="15.7914101213" y="532.0" type="line"/>
      <point x="193.746811781" y="22.5574209303" type="line"/>
      <point x="168.37695355" y="-95.1707578677" type="line" smooth="yes"/>
      <point x="159.558243843" y="-134.565716494"/>
      <point x="148.245975761" y="-165.985554926"/>
      <point x="134.481398002" y="-188.388811212" type="curve" smooth="yes"/>
      <point x="118.085906194" y="-213.281113679"/>
      <point x="96.7542970485" y="-226.482918377"/>
      <point x="72.1502223999" y="-226.482918377" type="curve" smooth="yes"/>
      <point x="59.286824703" y="-226.482918377"/>
      <point x="47.1431769182" y="-224.200842017"/>
      <point x="36.6875678073" y="-219.887407529" type="curve" smooth="yes"/>
      <point x="25.1344720639" y="-215.639961688"/>
      <point x="16.4677340474" y="-209.103681452"/>
      <point x="9.93785873696" y="-204.460163868" type="curve"/>
      <point x="-4.19326674295" y="-238.061429304" type="line"/>
      <point x="6.35409751306" y="-244.871554703"/>
      <point x="17.2628295962" y="-250.188261583"/>
      <point x="30.9159781439" y="-254.064515486" type="curve" smooth="yes"/>
      <point x="43.5967928574" y="-258.478569141"/>
      <point x="58.139151953" y="-261.0"/>
      <point x="76.0514631842" y="-261.0" type="curve" smooth="yes"/>
      <point x="118.217012465" y="-261.0"/>
      <point x="147.684892108" y="-240.516472052"/>
      <point x="168.217287237" y="-213.734358994" type="curve" smooth="yes"/>
      <point x="190.082758138" y="-187.062968927"/>
      <point x="205.987445149" y="-138.094352901"/>
      <point x="216.229046688" y="-98.0904058737" type="curve" smooth="yes"/>
    </contour>
  </outline>
</glyph>
<glyph name="z" format="1">
  <advance width="330.707432856"/>
  <unicode hex="007A"/>
  <outline>
    <contour>
      <point x="301.630979542" y="532.0" type="line"/>
      <point x="40.5271959238" y="532.0" type="line"/>
      <point x="40.5271959238" y="496.951383694" type="line"/>
      <point x="246.57296778" y="496.951383694" type="line"/>
      <point x="28.3781234079" y="31.5950725661" type="line"/>
      <point x="28.3781234079" y="0.0" type="line"/>
      <point x="312.470877092" y="0.0" type="line"/>
      <point x="312.470877092" y="35.0486163061" type="line"/>
      <point x="84.8666241799" y="35.0486163061" type="line"/>
      <point x="301.630979542" y="499.936248864" type="line"/>
    </contour>
  </outline>
</glyph>
<glyph name="braceleft" format="1">
  <advance width="270.860224083"/>
  <unicode hex="007B"/>
  <outline>
    <contour>
      <point x="37.5886461316" y="275.114747058" type="line"/>
      <point x="59.914597186" y="269.271251049"/>
      <point x="77.2334834478" y="260.364898927"/>
      <point x="89.7321404872" y="244.481533878" type="curve" smooth="yes"/>
      <point x="102.963570544" y="227.261467554"/>
      <point x="109.947201651" y="205.17686417"/>
      <point x="109.947201651" y="163.233122612" type="curve" smooth="yes"/>
      <point x="109.947201651" y="-1.18810072032" type="line" smooth="yes"/>
      <point x="109.947201651" y="-60.5300077344"/>
      <point x="121.426817448" y="-94.8329118922"/>
      <point x="140.046215232" y="-118.159156233" type="curve" smooth="yes"/>
      <point x="163.830948248" y="-146.047160658"/>
      <point x="203.437417329" y="-154.975120194"/>
      <point x="246.538239768" y="-155.96536948" type="curve"/>
      <point x="246.538239768" y="-120.643687629" type="line"/>
      <point x="218.285808078" y="-119.983521438"/>
      <point x="195.635225702" y="-111.319869603"/>
      <point x="180.05559078" y="-92.3327528516" type="curve" smooth="yes"/>
      <point x="165.830918759" y="-73.8325762966"/>
      <point x="159.526955271" y="-41.1556881026"/>
      <point x="159.526955271" y="7.48846230463" type="curve" smooth="yes"/>
      <point x="159.526955271" y="158.904952356" type="line" smooth="yes"/>
      <point x="159.526955271" y="206.871508349"/>
      <point x="149.713770735" y="239.207856514"/>
      <point x="131.136808162" y="261.041248699" type="curve" smooth="yes"/>
      <point x="116.900032509" y="277.354609791"/>
      <point x="97.6172626028" y="286.757299713"/>
      <point x="74.4268806658" y="290.833392185" type="curve"/>
      <point x="74.4268806658" y="293.339833809" type="line"/>
      <point x="98.1205716924" y="297.853246723"/>
      <point x="117.000651676" y="307.023340183"/>
      <point x="131.136808162" y="323.0" type="curve" smooth="yes"/>
      <point x="149.713770735" y="345.0"/>
      <point x="159.526955271" y="377.336348165"/>
      <point x="159.526955271" y="425.136296343" type="curve" smooth="yes"/>
      <point x="159.526955271" y="575.546168215" type="line" smooth="yes"/>
      <point x="159.526955271" y="624.356926437"/>
      <point x="166.161001855" y="656.537123721"/>
      <point x="180.05559078" y="675.367383371" type="curve" smooth="yes"/>
      <point x="193.984810225" y="693.694333932"/>
      <point x="218.285808078" y="703.018151958"/>
      <point x="246.538239768" y="703.678318148" type="curve"/>
      <point x="246.538239768" y="739.0" type="line"/>
      <point x="203.437417329" y="738.009750714"/>
      <point x="163.830948248" y="728.981172011"/>
      <point x="140.046215232" y="701.193786752" type="curve" smooth="yes"/>
      <point x="121.426817448" y="677.867542412"/>
      <point x="109.947201651" y="643.564638254"/>
      <point x="109.947201651" y="584.22273124" type="curve" smooth="yes"/>
      <point x="109.947201651" y="420.808126087" type="line" smooth="yes"/>
      <point x="109.947201651" y="378.930373177"/>
      <point x="102.963570544" y="356.779781145"/>
      <point x="89.7321404872" y="339.559714821" type="curve" smooth="yes"/>
      <point x="77.2334834478" y="323.676349772"/>
      <point x="59.914597186" y="314.76999765"/>
      <point x="37.5886461316" y="309.42981073" type="curve"/>
    </contour>
  </outline>
</glyph>
<glyph name="bar" format="1">
  <advance width="276.794811672"/>
  <unicode hex="007C"/>
  <outline>
    <contour>
      <point x="119.396591244" y="-250.0" type="line"/>
      <point x="157.398220428" y="-250.0" type="line"/>
      <point x="157.398220428" y="750.0" type="line"/>
      <point x="119.396591244" y="750.0" type="line"/>
    </contour>
  </outline>
</glyph>
<glyph name="braceright" format="1">
  <advance width="270.860224083"/>
  <unicode hex="007D"/>
  <outline>
    <contour>
      <point x="233.271577951" y="309.42981073" type="line"/>
      <point x="210.542936975" y="314.76999765"/>
      <point x="193.626740635" y="323.676349772"/>
      <point x="181.128083596" y="339.559714821" type="curve" smooth="yes"/>
      <point x="167.796034372" y="356.779781145"/>
      <point x="160.812403265" y="378.930373177"/>
      <point x="160.812403265" y="420.808126087" type="curve" smooth="yes"/>
      <point x="160.812403265" y="584.22273124" type="line" smooth="yes"/>
      <point x="160.812403265" y="643.564638254"/>
      <point x="149.332787468" y="677.867542412"/>
      <point x="130.713389684" y="701.193786752" type="curve" smooth="yes"/>
      <point x="107.029275835" y="729.081791178"/>
      <point x="66.7184725831" y="738.009750714"/>
      <point x="24.2213651481" y="739.0" type="curve"/>
      <point x="24.2213651481" y="703.678318148" type="line"/>
      <point x="52.6750351726" y="703.018151958"/>
      <point x="76.8754138579" y="693.694333932"/>
      <point x="90.7040141357" y="675.367383371" type="curve" smooth="yes"/>
      <point x="104.195913139" y="656.537123721"/>
      <point x="111.333268812" y="624.356926437"/>
      <point x="111.333268812" y="575.546168215" type="curve" smooth="yes"/>
      <point x="111.333268812" y="425.136296343" type="line" smooth="yes"/>
      <point x="111.333268812" y="377.336348165"/>
      <point x="120.743763426" y="345.0"/>
      <point x="139.723415921" y="323.0" type="curve" smooth="yes"/>
      <point x="153.75895324" y="307.023340183"/>
      <point x="172.236343301" y="297.853246723"/>
      <point x="196.433343417" y="293.339833809" type="curve"/>
      <point x="196.433343417" y="290.833392185" type="line"/>
      <point x="172.739652391" y="286.757299713"/>
      <point x="153.75895324" y="277.455228958"/>
      <point x="139.723415921" y="261.041248699" type="curve" smooth="yes"/>
      <point x="120.743763426" y="239.107237347"/>
      <point x="111.333268812" y="206.871508349"/>
      <point x="111.333268812" y="158.904952356" type="curve" smooth="yes"/>
      <point x="111.333268812" y="7.48846230463" type="line" smooth="yes"/>
      <point x="111.333268812" y="-41.1556881026"/>
      <point x="104.525996234" y="-73.8325762966"/>
      <point x="90.7040141357" y="-92.3327528516" type="curve" smooth="yes"/>
      <point x="75.2249983814" y="-111.319869603"/>
      <point x="52.6750351726" y="-119.983521438"/>
      <point x="24.2213651481" y="-120.643687629" type="curve"/>
      <point x="24.2213651481" y="-155.96536948" type="line"/>
      <point x="66.7184725831" y="-154.975120194"/>
      <point x="107.029275835" y="-145.946541491"/>
      <point x="130.713389684" y="-118.159156233" type="curve" smooth="yes"/>
      <point x="149.332787468" y="-94.8329118922"/>
      <point x="160.812403265" y="-60.5300077344"/>
      <point x="160.812403265" y="-1.18810072032" type="curve" smooth="yes"/>
      <point x="160.812403265" y="163.233122612" type="line" smooth="yes"/>
      <point x="160.812403265" y="205.17686417"/>
      <point x="167.796034372" y="227.261467554"/>
      <point x="181.128083596" y="244.481533878" type="curve" smooth="yes"/>
      <point x="193.626740635" y="260.364898927"/>
      <point x="210.542936975" y="269.271251049"/>
      <point x="233.271577951" y="275.114747058" type="curve"/>
    </contour>
  </outline>
</glyph>
<glyph name="paragraph" format="1">
  <advance width="433.90881474"/>
  <unicode hex="00B6"/>
  <outline>
    <contour>
      <point x="198.681689025" y="-134.498764115" type="line"/>
      <point x="233.585025216" y="-134.498764115" type="line"/>
      <point x="233.585025216" y="680.587610557" type="line"/>
      <point x="311.268344876" y="680.587610557" type="line"/>
      <point x="311.268344876" y="-134.498764115" type="line"/>
      <point x="346.674990157" y="-134.498764115" type="line"/>
      <point x="346.674990157" y="709.0" type="line"/>
      <point x="206.3049329" y="709.0" type="line" smooth="yes"/>
      <point x="144.893563969" y="709.0"/>
      <point x="100.010598383" y="688.559193913"/>
      <point x="69.6394527994" y="653.264021051" type="curve" smooth="yes"/>
      <point x="38.1613565182" y="617.556694202"/>
      <point x="22.3295572451" y="567.425070017"/>
      <point x="22.3295572451" y="511.6678437" type="curve" smooth="yes"/>
      <point x="22.3295572451" y="450.819089063"/>
      <point x="40.9554661332" y="402.454728558"/>
      <point x="71.8005952684" y="368.636678718" type="curve" smooth="yes"/>
      <point x="102.972321854" y="334.4194246"/>
      <point x="147.388221889" y="315.852232848"/>
      <point x="198.681689025" y="313.502295215" type="curve"/>
    </contour>
  </outline>
</glyph>
<glyph name="endash" format="1">
  <advance width="350.933305661"/>
  <unicode hex="2013"/>
  <outline>
    <contour>
      <point x="23.0551449242" y="270.32791898" type="line"/>
      <point x="23.0551449242" y="229.172257575" type="line"/>
      <point x="327.878160737" y="229.172257575" type="line"/>
      <point x="327.878160737" y="270.32791898" type="line"/>
    </contour>
  </outline>
</glyph>
<glyph name="emdash" format="1">
  <advance width="702.297313584"/>
  <unicode hex="2014"/>
  <outline>
    <contour>
      <point x="22.5618662623" y="270.32791898" type="line"/>
      <point x="22.5618662623" y="229.172257575" type="line"/>
      <point x="679.141549493" y="229.172257575" type="line"/>
      <point x="679.141549493" y="270.32791898" type="line"/>
    </contour>
  </outline>
</glyph>
<glyph name="bullet" format="1">
  <advance width="320.917292923"/>
  <unicode hex="2022"/>
  <outline>
    <contour>
      <point x="160.710301007" y="436.627590062" type="line"/>
      <point x="107.507228967" y="436.627590062"/>
      <point x="64.5794018547" y="393.599143783"/>
      <point x="64.5794018547" y="341.0" type="curve" smooth="yes"/>
      <point x="64.5794018547" y="287.897547128"/>
      <point x="107.507228967" y="244.869100848"/>
      <point x="160.710301007" y="244.869100848" type="curve" smooth="yes"/>
      <point x="213.309444789" y="244.869100848"/>
      <point x="256.237271901" y="287.897547128"/>
      <point x="256.237271901" y="341.0" type="curve" smooth="yes"/>
      <point x="256.237271901" y="393.599143783"/>
      <point x="213.309444789" y="436.627590062"/>
      <point x="161.710301007" y="436.627590062" type="curve"/>
    </contour>
  </outline>
</glyph>
<glyph name="trademark" format="1">
  <advance width="700.279709533"/>
  <unicode hex="2122"/>
  <outline>
    <contour>
      <point x="249.670007752" y="709.0" type="line"/>
      <point x="17.6950640486" y="709.0" type="line"/>
      <point x="17.6950640486" y="682.684817476" type="line"/>
      <point x="115.493432683" y="682.684817476" type="line"/>
      <point x="115.493432683" y="353.131977295" type="line"/>
      <point x="151.77101995" y="353.131977295" type="line"/>
      <point x="151.77101995" y="682.684817476" type="line"/>
      <point x="249.670007752" y="682.684817476" type="line"/>
    </contour>
    <contour>
      <point x="445.909839589" y="386.753676506" type="line"/>
      <point x="431.251632993" y="442.886360021"/>
      <point x="412.84741702" y="496.453797807"/>
      <point x="394.269975053" y="550.014830666" type="curve" smooth="yes"/>
      <point x="338.037472596" y="709.0" type="line"/>
      <point x="281.954270029" y="709.0" type="line"/>
      <point x="281.954270029" y="353.131977295" type="line"/>
      <point x="315.191035103" y="353.131977295" type="line"/>
      <point x="315.191035103" y="516.421077336" type="line" smooth="yes"/>
      <point x="315.191035103" y="570.676413939"/>
      <point x="314.083797757" y="624.538811333"/>
      <point x="313.382522724" y="683.098711466" type="curve"/>
      <point x="315.756987053" y="683.098711466" type="line"/>
      <point x="333.352410932" y="625.372203518"/>
      <point x="352.763105228" y="571.173104849"/>
      <point x="371.670490433" y="516.247851341" type="curve" smooth="yes"/>
      <point x="428.392785907" y="353.131977295" type="line"/>
      <point x="465.153474616" y="353.131977295" type="line"/>
      <point x="522.586935693" y="516.09099424" type="line" smooth="yes"/>
      <point x="541.997629988" y="570.346330843"/>
      <point x="561.839026546" y="624.538811333"/>
      <point x="579.434450426" y="683.098711466" type="curve"/>
      <point x="582.204986498" y="683.098711466" type="line"/>
      <point x="581.17362837" y="625.372203518"/>
      <point x="580.066391023" y="570.843021754"/>
      <point x="580.066391023" y="516.421077336" type="curve" smooth="yes"/>
      <point x="580.066391023" y="353.131977295" type="line"/>
      <point x="614.8693213" y="353.131977295" type="line"/>
      <point x="614.8693213" y="709.0" type="line"/>
      <point x="558.958918221" y="709.0" type="line"/>
      <point x="502.122487507" y="550.014830666" type="line" smooth="yes"/>
      <point x="483.538427361" y="497.453797807"/>
      <point x="464.696890946" y="443.719752206"/>
      <point x="448.479137326" y="386.753676506" type="curve"/>
    </contour>
  </outline>
</glyph>
